<?xml version="1.0" encoding="UTF-8" standalone="no"?>
<!-- Created with Inkscape (http://www.inkscape.org/) -->

<svg
   xmlns:dc="http://purl.org/dc/elements/1.1/"
   xmlns:cc="http://creativecommons.org/ns#"
   xmlns:rdf="http://www.w3.org/1999/02/22-rdf-syntax-ns#"
   xmlns:svg="http://www.w3.org/2000/svg"
   xmlns="http://www.w3.org/2000/svg"
   xmlns:sodipodi="http://sodipodi.sourceforge.net/DTD/sodipodi-0.dtd"
   xmlns:inkscape="http://www.inkscape.org/namespaces/inkscape"
   width="166.80734"
   height="106.31099"
   id="svg3920"
   version="1.1"
   inkscape:version="0.48.4 r9939"
   sodipodi:docname="Nouveau document 13">
  <defs
     id="defs3922" />
  <sodipodi:namedview
     id="base"
     pagecolor="#ffffff"
     bordercolor="#666666"
     borderopacity="1.0"
     inkscape:pageopacity="0.0"
     inkscape:pageshadow="2"
     inkscape:zoom="7.7790643"
     inkscape:cx="83.40367"
     inkscape:cy="55.530024"
     inkscape:document-units="px"
     inkscape:current-layer="layer1"
     showgrid="false"
     fit-margin-top="0"
     fit-margin-left="0"
     fit-margin-right="0"
     fit-margin-bottom="0"
     inkscape:window-width="1680"
     inkscape:window-height="1013"
     inkscape:window-x="1600"
     inkscape:window-y="0"
     inkscape:window-maximized="1" />
  <metadata
     id="metadata3925">
    <rdf:RDF>
      <cc:Work
         rdf:about="">
        <dc:format>image/svg+xml</dc:format>
        <dc:type
           rdf:resource="http://purl.org/dc/dcmitype/StillImage" />
        <dc:title></dc:title>
      </cc:Work>
    </rdf:RDF>
  </metadata>
  <g
     inkscape:label="Calque 1"
     inkscape:groupmode="layer"
     id="layer1"
     transform="translate(-33.739189,-33.492374)">
    <path
       inkscape:connector-curvature="0"
       style="fill:#64226c;fill-opacity:1;stroke:none"
       d="m 122.54916,33.493169 c -2.8124,-0.01 -5.6546,0.0744 -8.5313,0.25 -46.026903,2.80899 -81.948903,28.78392 -80.218703,58 1.7301,29.216091 40.4418,50.621481 86.468703,47.812501 46.0269,-2.80898 81.9489,-28.78391 80.2187,-58.000001 -1.6219,-27.39008 -35.7528,-47.91817 -77.9374,-48.0625 z m 7.25,5.3125 c 28.3905,-0.37776 51.5622,11.17538 56.2812,30.25 6.0404,24.41552 -20.4496,51.890421 -59.1875,61.375001 -38.737903,9.48459 -75.053403,-2.61573 -81.093703,-27.03125 -6.0404,-24.415511 20.4808,-51.890411 59.218703,-61.375001 8.4739,-2.07475 16.8319,-3.11297 24.7813,-3.21875 z"
       id="path3134" />
  </g>
</svg>
