<?xml version="1.0" encoding="utf-8"?>
<!-- Generator: Adobe Illustrator 18.1.0, SVG Export Plug-In . SVG Version: 6.00 Build 0)  -->
<svg version="1.1" id="Calque_1" xmlns="http://www.w3.org/2000/svg" xmlns:xlink="http://www.w3.org/1999/xlink" x="0px" y="0px"
	 viewBox="0 0 566.9 566.9" enable-background="new 0 0 566.9 566.9" xml:space="preserve">
<g>
	<path d="M470.6,471.5L470.6,471.5c-103.5,103.2-271,103.1-374.3-0.3C-6.9,367.8-6.8,200.3,96.5,97.1
		C199.9-6.2,367.4-6.2,470.7,97.2c49.6,49.6,77.5,117,77.4,187.2C548.1,354.6,520.3,421.9,470.6,471.5 M477,84
		C367.1-22.1,193-22.1,83.1,84C-25.6,196.6-22.5,376,90.1,484.8c109.8,106.1,284,106.1,393.9,0C592.7,372.2,589.6,192.7,477,84"/>
	<path d="M429.4,395.9C429.4,395.9,429.4,395.9,429.4,395.9l0.1-0.3L415,410.1c-18.6,18.8-45.6,26.6-71.4,20.4
		c-25.9-6.9-50.5-18-72.9-32.7c-20.8-13.3-40.1-28.9-57.5-46.4c-16-15.9-30.4-33.4-43-52.2c-13.7-20.2-24.6-42.2-32.3-65.4
		c-8.8-27.2-1.5-57.1,18.9-77.2l16.8-16.8c4.7-4.7,12.3-4.7,17,0c0,0,0,0,0,0l53.1,53.1c4.7,4.7,4.7,12.3,0,17c0,0,0,0,0,0
		l-31.2,31.2c-8.9,8.9-10.1,22.9-2.6,33.1c11.3,15.5,23.8,30,37.3,43.6c15.1,15.2,31.6,29,49.1,41.3c10.2,7.1,23.9,5.9,32.7-2.8
		l30.1-30.6c4.7-4.7,12.3-4.7,17,0c0,0,0,0,0,0l53.2,53.3C434,383.6,434.1,391.2,429.4,395.9 M442.8,365.1l-53.1-52.9
		c-12.1-12.1-31.6-12.1-43.7-0.1c0,0,0,0.1-0.1,0.1l-30.4,30.4c-2.3,2.3-5.9,2.6-8.6,0.8c-16.7-11.6-32.2-24.7-46.6-39.1
		c-12.8-12.8-24.7-26.6-35.3-41.3c-1.9-2.6-1.7-6.3,0.7-8.6l31.2-31.2c12-12.1,12-31.6,0-43.7l-53.1-53.1
		c-12.2-11.7-31.5-11.7-43.7,0l-16.8,16.8c-25.4,25.1-34.5,62.4-23.4,96.4c8.2,24.8,19.9,48.5,34.6,70.1
		c13.2,19.9,28.4,38.4,45.3,55.2c18.4,18.5,38.8,35,60.8,49c24.2,15.8,50.7,27.6,78.6,35c7.2,1.8,14.5,2.7,21.9,2.6
		c25.3-0.2,49.6-10.3,67.4-28.3l14.5-14.5C454.8,396.7,454.8,377.2,442.8,365.1"/>
</g>
</svg>
