<?xml version="1.0" encoding="utf-8"?>
<!-- Generator: Adobe Illustrator 15.1.0, SVG Export Plug-In . SVG Version: 6.00 Build 0)  -->
<!DOCTYPE svg PUBLIC "-//W3C//DTD SVG 1.1//EN" "http://www.w3.org/Graphics/SVG/1.1/DTD/svg11.dtd">
<svg version="1.1" id="Calque_1" xmlns="http://www.w3.org/2000/svg" xmlns:xlink="http://www.w3.org/1999/xlink" x="0px" y="0px"
	 width="225px" height="98.003px" viewBox="0 0 225 98.003" enable-background="new 0 0 225 98.003" xml:space="preserve">
<rect x="0.456" y="0.939" fill="#FFFFFF" width="224.349" height="96.576"/>
<g>
	<g>
		<path fill="#878787" d="M27.757,88.514V73.52h4.531l2.721,10.229l2.69-10.229h4.542v14.994h-2.813V76.711l-2.976,11.803h-2.915
			L30.57,76.711v11.803H27.757z"/>
		<path fill="#878787" d="M51.937,85.057l2.864,0.48c-0.368,1.051-0.95,1.85-1.744,2.398c-0.794,0.549-1.789,0.824-2.982,0.824
			c-1.889,0-3.287-0.617-4.193-1.852c-0.716-0.988-1.074-2.236-1.074-3.744c0-1.799,0.47-3.209,1.411-4.229s2.131-1.529,3.57-1.529
			c1.616,0,2.891,0.533,3.825,1.602c0.934,1.066,1.381,2.701,1.34,4.904h-7.201c0.021,0.852,0.252,1.516,0.696,1.988
			c0.443,0.475,0.996,0.711,1.657,0.711c0.45,0,0.829-0.123,1.135-0.367C51.548,85.998,51.779,85.604,51.937,85.057z M52.1,82.152
			c-0.021-0.832-0.235-1.465-0.645-1.896c-0.409-0.434-0.907-0.65-1.493-0.65c-0.627,0-1.146,0.229-1.555,0.686
			s-0.61,1.078-0.604,1.861H52.1z M48.428,76.322l1.412-3.059h3.222l-2.812,3.059H48.428z"/>
		<path fill="#878787" d="M67.677,88.514h-2.669v-1.596c-0.443,0.621-0.967,1.084-1.57,1.387s-1.212,0.455-1.826,0.455
			c-1.248,0-2.316-0.502-3.207-1.508c-0.89-1.006-1.334-2.41-1.334-4.209c0-1.842,0.433-3.242,1.299-4.199
			c0.866-0.959,1.96-1.438,3.283-1.438c1.214,0,2.264,0.504,3.15,1.514v-5.4h2.874V88.514z M60.006,82.848
			c0,1.16,0.16,1.998,0.481,2.516c0.463,0.75,1.111,1.125,1.943,1.125c0.661,0,1.224-0.281,1.688-0.844s0.696-1.402,0.696-2.521
			c0-1.246-0.225-2.145-0.675-2.693s-1.026-0.824-1.729-0.824c-0.682,0-1.253,0.271-1.713,0.812
			C60.236,80.961,60.006,81.77,60.006,82.848z"/>
		<path fill="#878787" d="M70.929,76.18v-2.66h2.874v2.66H70.929z M70.929,88.514V77.652h2.874v10.861H70.929z"/>
		<path fill="#878787" d="M82.149,77.652v2.291h-1.964v4.377c0,0.887,0.019,1.402,0.056,1.551c0.038,0.146,0.123,0.268,0.256,0.361
			c0.133,0.096,0.294,0.145,0.486,0.145c0.266,0,0.651-0.092,1.156-0.277l0.245,2.23c-0.668,0.287-1.425,0.43-2.271,0.43
			c-0.518,0-0.985-0.088-1.401-0.262s-0.721-0.398-0.915-0.674c-0.194-0.277-0.329-0.65-0.404-1.121
			c-0.062-0.334-0.092-1.008-0.092-2.025v-4.734h-1.32v-2.291h1.32v-2.158l2.884-1.678v3.836H82.149z"/>
		<path fill="#878787" d="M90.853,85.057l2.864,0.48c-0.368,1.051-0.95,1.85-1.744,2.398c-0.794,0.549-1.789,0.824-2.982,0.824
			c-1.889,0-3.287-0.617-4.193-1.852c-0.716-0.988-1.074-2.236-1.074-3.744c0-1.799,0.47-3.209,1.411-4.229s2.131-1.529,3.57-1.529
			c1.616,0,2.891,0.533,3.825,1.602c0.934,1.066,1.381,2.701,1.34,4.904h-7.201c0.021,0.852,0.252,1.516,0.696,1.988
			c0.443,0.475,0.996,0.711,1.657,0.711c0.45,0,0.829-0.123,1.135-0.367C90.464,85.998,90.696,85.604,90.853,85.057z M91.017,82.152
			c-0.021-0.832-0.235-1.465-0.645-1.896c-0.409-0.434-0.907-0.65-1.493-0.65c-0.627,0-1.146,0.229-1.555,0.686
			s-0.61,1.078-0.604,1.861H91.017z"/>
		<path fill="#878787" d="M99.383,88.514h-2.874V77.652h2.669v1.543c0.457-0.729,0.868-1.209,1.232-1.441s0.779-0.348,1.243-0.348
			c0.655,0,1.286,0.182,1.893,0.543l-0.89,2.506c-0.484-0.314-0.934-0.471-1.35-0.471c-0.402,0-0.743,0.111-1.023,0.332
			c-0.279,0.221-0.5,0.623-0.66,1.201c-0.16,0.58-0.24,1.795-0.24,3.643V88.514z"/>
		<path fill="#878787" d="M107.954,88.514h-2.874V77.652h2.669v1.543c0.457-0.729,0.868-1.209,1.232-1.441s0.779-0.348,1.243-0.348
			c0.655,0,1.286,0.182,1.893,0.543l-0.89,2.506c-0.484-0.314-0.934-0.471-1.35-0.471c-0.402,0-0.743,0.111-1.023,0.332
			c-0.279,0.221-0.5,0.623-0.66,1.201c-0.16,0.58-0.24,1.795-0.24,3.643V88.514z"/>
		<path fill="#878787" d="M115.921,80.965l-2.608-0.469c0.293-1.051,0.798-1.828,1.514-2.332c0.716-0.506,1.78-0.758,3.191-0.758
			c1.282,0,2.237,0.152,2.864,0.455c0.627,0.303,1.069,0.689,1.324,1.156c0.256,0.467,0.384,1.324,0.384,2.572l-0.031,3.355
			c0,0.953,0.046,1.658,0.138,2.111c0.092,0.453,0.264,0.939,0.517,1.457h-2.844c-0.075-0.189-0.167-0.473-0.276-0.848
			c-0.048-0.172-0.082-0.283-0.103-0.338c-0.491,0.477-1.016,0.834-1.575,1.074c-0.559,0.238-1.156,0.357-1.79,0.357
			c-1.119,0-2-0.303-2.644-0.91c-0.645-0.607-0.967-1.375-0.967-2.301c0-0.615,0.146-1.162,0.44-1.643
			c0.293-0.48,0.704-0.85,1.232-1.105c0.528-0.254,1.291-0.479,2.286-0.67c1.343-0.252,2.274-0.486,2.792-0.705v-0.287
			c0-0.551-0.136-0.945-0.409-1.18c-0.272-0.236-0.787-0.354-1.544-0.354c-0.511,0-0.91,0.102-1.196,0.301
			C116.33,80.107,116.098,80.461,115.921,80.965z M119.767,83.297c-0.368,0.123-0.951,0.27-1.749,0.441
			c-0.797,0.17-1.319,0.336-1.565,0.5c-0.375,0.266-0.562,0.604-0.562,1.014c0,0.402,0.15,0.75,0.45,1.043
			c0.3,0.293,0.682,0.439,1.146,0.439c0.518,0,1.013-0.17,1.483-0.512c0.348-0.258,0.576-0.576,0.686-0.951
			c0.075-0.246,0.112-0.713,0.112-1.4V83.297z"/>
		<path fill="#878787" d="M135.722,88.514h-2.874v-5.543c0-1.174-0.062-1.932-0.184-2.275c-0.123-0.346-0.322-0.613-0.598-0.803
			c-0.276-0.191-0.609-0.287-0.998-0.287c-0.498,0-0.944,0.137-1.34,0.408c-0.396,0.273-0.667,0.635-0.813,1.086
			c-0.147,0.449-0.22,1.281-0.22,2.494v4.92h-2.875V77.652h2.67v1.596c0.948-1.229,2.141-1.842,3.58-1.842
			c0.634,0,1.214,0.115,1.739,0.342c0.525,0.229,0.922,0.521,1.192,0.875c0.269,0.355,0.457,0.758,0.562,1.207
			c0.105,0.451,0.158,1.096,0.158,1.934V88.514z"/>
		<path fill="#878787" d="M145.347,85.057l2.864,0.48c-0.368,1.051-0.95,1.85-1.744,2.398c-0.794,0.549-1.789,0.824-2.982,0.824
			c-1.889,0-3.287-0.617-4.193-1.852c-0.716-0.988-1.074-2.236-1.074-3.744c0-1.799,0.47-3.209,1.411-4.229s2.131-1.529,3.57-1.529
			c1.616,0,2.891,0.533,3.825,1.602c0.934,1.066,1.381,2.701,1.34,4.904h-7.201c0.021,0.852,0.252,1.516,0.696,1.988
			c0.443,0.475,0.996,0.711,1.657,0.711c0.45,0,0.829-0.123,1.135-0.367C144.958,85.998,145.189,85.604,145.347,85.057z
			 M145.51,82.152c-0.021-0.832-0.235-1.465-0.645-1.896c-0.409-0.434-0.907-0.65-1.493-0.65c-0.627,0-1.146,0.229-1.555,0.686
			s-0.61,1.078-0.604,1.861H145.51z M141.838,76.322l1.412-3.059h3.222l-2.812,3.059H141.838z"/>
		<path fill="#878787" d="M157.416,85.057l2.864,0.48c-0.368,1.051-0.95,1.85-1.744,2.398c-0.794,0.549-1.789,0.824-2.982,0.824
			c-1.889,0-3.287-0.617-4.193-1.852c-0.716-0.988-1.074-2.236-1.074-3.744c0-1.799,0.47-3.209,1.411-4.229s2.131-1.529,3.57-1.529
			c1.616,0,2.891,0.533,3.825,1.602c0.934,1.066,1.381,2.701,1.34,4.904h-7.201c0.021,0.852,0.252,1.516,0.696,1.988
			c0.443,0.475,0.996,0.711,1.657,0.711c0.45,0,0.829-0.123,1.135-0.367C157.027,85.998,157.258,85.604,157.416,85.057z
			 M157.579,82.152c-0.021-0.832-0.235-1.465-0.645-1.896c-0.409-0.434-0.907-0.65-1.493-0.65c-0.627,0-1.146,0.229-1.555,0.686
			s-0.61,1.078-0.604,1.861H157.579z"/>
	</g>
	<g>
		<path fill="#4B4A49" d="M35.899,38.928l-9.629-1.736c1.082-3.877,2.945-6.746,5.589-8.609c2.643-1.863,6.57-2.795,11.782-2.795
			c4.732,0,8.256,0.561,10.573,1.682c2.316,1.119,3.946,2.543,4.89,4.266c0.944,1.725,1.417,4.891,1.417,9.498l-0.113,12.385
			c0,3.525,0.17,6.125,0.51,7.799s0.975,3.467,1.907,5.381H52.326c-0.277-0.705-0.617-1.75-1.02-3.135
			c-0.177-0.629-0.302-1.045-0.378-1.246c-1.812,1.762-3.751,3.084-5.815,3.965c-2.064,0.881-4.267,1.322-6.608,1.322
			c-4.129,0-7.382-1.121-9.761-3.361s-3.569-5.072-3.569-8.496c0-2.266,0.542-4.285,1.624-6.061c1.082-1.775,2.599-3.135,4.55-4.078
			c1.951-0.945,4.764-1.77,8.439-2.475c4.959-0.93,8.396-1.799,10.309-2.605V39.57c0-2.039-0.504-3.492-1.51-4.361
			c-1.007-0.869-2.908-1.303-5.702-1.303c-1.888,0-3.361,0.371-4.418,1.113C37.41,35.764,36.554,37.066,35.899,38.928z
			 M50.098,47.537c-1.359,0.453-3.512,0.996-6.457,1.625c-2.946,0.629-4.872,1.246-5.778,1.85c-1.385,0.982-2.077,2.229-2.077,3.738
			c0,1.486,0.553,2.77,1.662,3.852c1.107,1.084,2.517,1.625,4.229,1.625c1.913,0,3.738-0.629,5.476-1.889
			c1.284-0.957,2.127-2.127,2.53-3.512c0.277-0.906,0.416-2.631,0.416-5.174V47.537z"/>
		<path fill="#4B4A49" d="M70.526,66.797V11.438h10.611v19.939c3.272-3.727,7.149-5.59,11.63-5.59c4.884,0,8.924,1.77,12.122,5.307
			c3.197,3.537,4.795,8.615,4.795,15.236c0,6.848-1.63,12.121-4.89,15.822c-3.26,3.699-7.219,5.551-11.876,5.551
			c-2.291,0-4.55-0.574-6.778-1.719c-2.228-1.145-4.148-2.838-5.759-5.078v5.891H70.526z M81.062,45.877
			c0,4.154,0.654,7.225,1.963,9.213c1.837,2.82,4.28,4.23,7.326,4.23c2.341,0,4.336-1.002,5.985-3.002
			c1.648-2.002,2.474-5.154,2.474-9.461c0-4.58-0.831-7.885-2.493-9.912c-1.661-2.025-3.789-3.039-6.381-3.039
			c-2.543,0-4.658,0.988-6.344,2.965S81.062,41.85,81.062,45.877z"/>
		<path fill="#4B4A49" d="M136.609,26.693v8.459h-7.25v16.162c0,3.273,0.069,5.18,0.208,5.721c0.138,0.541,0.453,0.988,0.944,1.34
			c0.491,0.354,1.088,0.529,1.793,0.529c0.982,0,2.404-0.34,4.267-1.02l0.906,8.232c-2.467,1.057-5.262,1.586-8.383,1.586
			c-1.914,0-3.638-0.322-5.173-0.963c-1.536-0.643-2.662-1.473-3.38-2.492c-0.717-1.02-1.215-2.398-1.491-4.135
			c-0.227-1.234-0.34-3.727-0.34-7.477V35.152h-4.872v-8.459h4.872v-7.967l10.648-6.193v14.16H136.609z"/>
		<path fill="#4B4A49" d="M167.196,54.033l10.574,1.775c-1.359,3.877-3.507,6.828-6.439,8.854
			c-2.933,2.027-6.602,3.041-11.007,3.041c-6.974,0-12.135-2.279-15.482-6.836c-2.643-3.648-3.965-8.256-3.965-13.82
			c0-6.646,1.737-11.85,5.211-15.613s7.867-5.646,13.179-5.646c5.966,0,10.674,1.971,14.123,5.91s5.098,9.975,4.947,18.107h-26.585
			c0.076,3.146,0.931,5.594,2.568,7.344c1.636,1.75,3.675,2.625,6.118,2.625c1.661,0,3.059-0.453,4.191-1.359
			S166.617,56.047,167.196,54.033z M167.8,43.309c-0.076-3.07-0.869-5.406-2.379-7.004c-1.511-1.6-3.349-2.398-5.513-2.398
			c-2.316,0-4.229,0.844-5.74,2.529c-1.511,1.688-2.253,3.979-2.228,6.873H167.8z"/>
		<path fill="#4B4A49" d="M186.983,66.797V11.438h10.611v55.359H186.983z"/>
	</g>
	<g>
		<path fill="#4B4A49" d="M211.889,11.438c1.166,0,2.285,0.293,3.356,0.875c1.071,0.584,1.914,1.42,2.526,2.51
			c0.613,1.09,0.92,2.229,0.92,3.418c0,1.186-0.301,2.314-0.902,3.389c-0.601,1.074-1.438,1.912-2.513,2.514s-2.204,0.9-3.388,0.9
			c-1.185,0-2.314-0.299-3.389-0.9s-1.912-1.439-2.514-2.514c-0.6-1.074-0.9-2.203-0.9-3.389c0-1.189,0.307-2.328,0.919-3.418
			s1.454-1.926,2.526-2.51C209.604,11.73,210.722,11.438,211.889,11.438z M211.898,12.77c-0.936,0-1.833,0.234-2.69,0.703
			c-0.859,0.467-1.535,1.139-2.029,2.016c-0.495,0.877-0.742,1.793-0.742,2.752c0,0.955,0.241,1.863,0.724,2.727
			c0.482,0.865,1.155,1.541,2.021,2.025c0.864,0.486,1.77,0.729,2.718,0.729c0.953,0,1.86-0.242,2.722-0.729
			c0.861-0.484,1.535-1.16,2.021-2.025c0.485-0.863,0.728-1.771,0.728-2.727c0-0.959-0.246-1.875-0.74-2.752
			c-0.495-0.877-1.173-1.549-2.034-2.016C213.731,13.004,212.833,12.77,211.898,12.77z M208.816,21.883v-7.221h1.466
			c1.373,0,2.143,0.006,2.309,0.018c0.485,0.041,0.863,0.139,1.133,0.289s0.494,0.381,0.674,0.693
			c0.182,0.311,0.271,0.654,0.271,1.033c0,0.521-0.17,0.967-0.511,1.338c-0.341,0.369-0.818,0.6-1.435,0.688
			c0.219,0.082,0.389,0.174,0.507,0.271s0.28,0.281,0.488,0.555c0.054,0.07,0.231,0.363,0.532,0.879l0.854,1.457h-1.812
			l-0.604-1.172c-0.408-0.789-0.746-1.285-1.012-1.488c-0.268-0.205-0.604-0.307-1.014-0.307h-0.381v2.967H208.816z M210.282,17.779
			h0.595c0.847,0,1.372-0.033,1.576-0.098s0.366-0.18,0.484-0.342s0.177-0.348,0.177-0.555c0-0.201-0.057-0.381-0.172-0.537
			c-0.116-0.158-0.28-0.27-0.494-0.338c-0.213-0.068-0.736-0.102-1.571-0.102h-0.595V17.779z"/>
	</g>
</g>
<rect id="_x3C_Tranche_x3E_" fill="none" width="225" height="97.998"/>
</svg>
