<?xml version="1.0" encoding="utf-8"?>
<!-- Generated by IcoMoon.io -->
<!DOCTYPE svg PUBLIC "-//W3C//DTD SVG 1.1//EN" "http://www.w3.org/Graphics/SVG/1.1/DTD/svg11.dtd">
<svg version="1.1" xmlns="http://www.w3.org/2000/svg" xmlns:xlink="http://www.w3.org/1999/xlink" width="148" height="82" viewBox="0 0 148 82">
<svg id="icon-phone" width="16" height="16" viewBox="0 0 16 16" x="0" y="0">
<path fill="#fe504f" d="M1.063 0.594c0.639-0.64 2.571-0.748 2.585-0.408s1.739 4.096 1.755 4.434c0.015 0.338-1.137 1.494-1.474 1.832-0.334 0.335 2.254 3.266 2.303 3.322 0.055 0.050 2.98 2.643 3.314 2.309 0.337-0.338 1.489-1.492 1.826-1.477s4.087 1.744 4.425 1.759c0.338 0.014 0.231 1.95-0.408 2.591-0.546 0.547-3.376 2.535-8.296-1.014-0.54-0.311-1.394-1.024-2.69-2.323-0-0.001-0.002-0.002-0.003-0.002s-0.002-0.002-0.003-0.003-0.002-0.002-0.003-0.003-0.002-0.002-0.002-0.002c-1.295-1.299-2.007-2.156-2.317-2.697-3.542-4.932-1.558-7.769-1.012-8.316z"></path>
</svg>
<svg id="icon-location2" width="16" height="16" viewBox="0 0 16 16" x="66" y="0">
<path fill="#fe504f" d="M8 0c-2.761 0-5 2.239-5 5 0 5 5 11 5 11s5-6 5-11c0-2.761-2.239-5-5-5zM8 8.063c-1.691 0-3.063-1.371-3.063-3.063s1.371-3.063 3.063-3.063 3.063 1.371 3.063 3.063-1.371 3.063-3.063 3.063zM6.063 5c0-1.070 0.867-1.938 1.938-1.938s1.938 0.867 1.938 1.938c0 1.070-0.867 1.938-1.938 1.938s-1.938-0.867-1.938-1.938z"></path>
</svg>
<svg id="icon-mail" width="16" height="16" viewBox="0 0 16 16" x="0" y="66">
<path fill="#fe504f" d="M14 2.5h-12c-1.105 0-2 0.896-2 2v6.5c0 1.104 0.895 2 2 2h12c1.104 0 2-0.896 2-2v-6.5c0-1.104-0.896-2-2-2zM1 5.125l3.499 2.625-3.499 2.625v-5.25zM15 11c0 0.552-0.449 1-1 1h-12c-0.551 0-1-0.448-1-1l3.916-2.938 2.184 1.639c0.266 0.199 0.583 0.3 0.9 0.3s0.633-0.101 0.899-0.3l2.184-1.639 3.916 2.938zM15 10.375l-3.5-2.625 3.5-2.625v5.25zM8.6 9.301c-0.175 0.131-0.382 0.2-0.6 0.2s-0.425-0.069-0.6-0.2l-6.4-4.801c0-0.551 0.449-1 1-1h12c0.551 0 1 0.449 1 1l-6.401 4.801z"></path>
</svg>
</svg>
