<?xml version="1.0" encoding="utf-8"?>
<!-- Generated by IcoMoon.io -->
<!DOCTYPE svg PUBLIC "-//W3C//DTD SVG 1.1//EN" "http://www.w3.org/Graphics/SVG/1.1/DTD/svg11.dtd">
<svg version="1.1" xmlns="http://www.w3.org/2000/svg" xmlns:xlink="http://www.w3.org/1999/xlink" width="430" height="190" viewBox="0 0 430 190">
<svg id="icon-stats" width="30" height="30" viewBox="0 0 30 30" x="0" y="0">
<path fill="#fe504f" d="M5.623 4.688h-0.925v21.563h18.75v-0.903l-17.809-0.046-0.016-20.614zM7.51 23.438h4.688v-10.195l-4.688 4.688v5.508zM13.135 23.438h4.687v-9.258l-1.875 1.875-2.813-2.813v10.195zM18.76 23.438h4.688v-14.238l-4.688 4.688v9.55zM12.55 10.375l3.394 3.375 6.701-6.668 1.719 1.729-0.041-4.124-4.139 0.022 1.61 1.614-5.852 5.869-3.458-3.472-5.272 5.254 0.88 0.855 4.458-4.454z"></path>
</svg>
<svg id="icon-target" width="30" height="30" viewBox="0 0 30 30" x="80" y="0">
<path fill="#fe504f" d="M26.364 3.36l-2.013 1.779-1.222 0.019-2.559 2.677c1.65 1.753 2.668 4.109 2.668 6.707 0 5.412-4.388 9.802-9.802 9.802s-9.801-4.389-9.801-9.802c0-5.413 4.388-9.802 9.801-9.802 2.48 0 4.737 0.927 6.463 2.445l2.47-2.47 0.002-1.088 1.896-2.189-0.002 1.949 2.098-0.026zM19.58 8.826l-2.492 2.493c0.844 0.916 1.372 2.128 1.372 3.472 0 2.836-2.298 5.134-5.134 5.134s-5.135-2.298-5.135-5.134c0-2.835 2.299-5.135 5.135-5.135 1.154 0 2.208 0.395 3.067 1.038l2.518-2.518c-1.471-1.266-3.38-2.035-5.473-2.035-4.64 0-8.401 3.762-8.401 8.402s3.761 8.4 8.401 8.4 8.401-3.761 8.401-8.4c-0.001-2.211-0.862-4.216-2.258-5.716zM13.286 16.268c-0.773 0-1.4-0.626-1.4-1.4s0.627-1.401 1.4-1.401c0.097 0 0.184 0.037 0.277 0.056l2.168-2.168c-0.683-0.479-1.508-0.765-2.406-0.765-2.32 0-4.2 1.882-4.2 4.201s1.881 4.2 4.2 4.2 4.2-1.881 4.2-4.2c0-1.086-0.423-2.065-1.1-2.812l-2.048 2.049c0.181 0.236 0.308 0.519 0.308 0.84 0.001 0.772-0.626 1.399-1.4 1.399zM9.239 25.076c0.278 0.141 0.564 0.267 0.858 0.381l-1.658 2.871c-0.129 0.223-0.414 0.298-0.638 0.171-0.222-0.128-0.299-0.413-0.171-0.637l1.609-2.784zM13.928 25.81v1.308c0 0.258-0.21 0.467-0.467 0.467s-0.467-0.209-0.467-0.467v-1.308c0.156 0.008 0.309 0.023 0.467 0.023s0.311-0.016 0.467-0.023zM19.642 27.862c0.128 0.223 0.053 0.509-0.172 0.637s-0.508 0.053-0.638-0.171l-1.657-2.871c0.293-0.113 0.579-0.24 0.858-0.381l1.609 2.784z"></path>
</svg>
<svg id="icon-strategy" width="22" height="30" viewBox="0 0 22 30" x="160" y="0">
<path fill="#fe504f" d="M20.625 29.531c0-0.259-0.21-0.469-0.469-0.469h-16.875c-0.259 0-0.469 0.21-0.469 0.469s0.21 0.469 0.469 0.469h16.875c0.259 0 0.469-0.21 0.469-0.469zM1.194 8.769c-0.392 0.261-0.986 1.054-0.423 2.181 0.468 0.935 1.444 2.078 2.482 2.38 0.529 0.156 1.050 0.091 1.505-0.184 1.030-0.617 2.247-1.451 2.763-1.809 0.651 0.329 1.472 0.397 2.306 0.183 0.004-0.001 0.007-0.003 0.011-0.004-0.049 1.548-0.573 2.514-3.135 4.894-2.284 2.12-3.638 4.904-3.625 7.449 0.009 1.67 0.618 3.103 1.763 4.143 0.087 0.080 0.2 0.123 0.316 0.123h13.125c0.259 0 0.469-0.21 0.469-0.469s-0.21-0.469-0.469-0.469h-12.938c-0.862-0.848-1.319-1.997-1.327-3.333-0.012-2.252 1.263-4.842 3.325-6.758 2.733-2.537 3.44-3.739 3.44-5.847 0-0.038-0.013-0.072-0.022-0.108 0.513-0.277 0.956-0.642 1.259-1.085 0.38-0.553 1.197-1.973 0.591-3.231-0.113-0.232-0.393-0.33-0.626-0.218s-0.331 0.393-0.217 0.626c0.273 0.565 0.079 1.422-0.519 2.292-0.345 0.502-0.962 0.908-1.651 1.085-0.7 0.179-1.366 0.1-1.83-0.217-0.162-0.111-0.375-0.11-0.535 0.004-0.017 0.011-1.666 1.173-2.952 1.944-0.235 0.141-0.484 0.171-0.761 0.088-0.726-0.212-1.523-1.136-1.905-1.899-0.308-0.617 0.007-0.911 0.151-1.016 3.232-2.791 4.853-5.691 4.92-5.813 0.062-0.114 0.075-0.249 0.034-0.374-0.005-0.014-0.328-0.997-0.506-1.906 0.981 0.591 2.667 1.416 4.423 1.416 2.441 0 8.117 0.911 8.117 9.352 0 0.046-0.008 4.635-1.847 9.682-0.089 0.243 0.037 0.512 0.28 0.601 0.053 0.018 0.107 0.027 0.16 0.027 0.191 0 0.371-0.118 0.441-0.308 1.895-5.201 1.904-9.812 1.903-10.004 0-9.547-6.931-10.288-9.054-10.288-2.352 0-4.699-1.784-4.721-1.803-0.143-0.108-0.333-0.126-0.494-0.048s-0.262 0.242-0.262 0.42c0 0.92 0.436 2.407 0.606 2.95-0.392 0.654-1.937 3.076-4.567 5.35zM16.392 1.444c-1.501-1.012-3.179-1.444-5.611-1.444-0.259 0-0.469 0.21-0.469 0.469s0.21 0.469 0.469 0.469c2.231 0 3.753 0.383 5.088 1.283 2.169 1.464 4.756 4.382 4.756 9.967 0 1.36 0 3.223-0.923 6.918-0.062 0.251 0.090 0.505 0.341 0.568 0.038 0.009 0.076 0.014 0.113 0.014 0.211 0 0.402-0.142 0.455-0.355 0.952-3.805 0.952-5.736 0.952-7.145 0-5.996-2.812-9.153-5.17-10.744z"></path>
</svg>
<svg id="icon-phone" width="30" height="30" viewBox="0 0 30 30" x="240" y="0">
<path fill="#fe504f" d="M22.5 0h-15c-1.554 0-2.813 1.259-2.813 2.813v24.375c0 1.554 1.259 2.813 2.813 2.813h15c1.552 0 2.813-1.26 2.813-2.813v-24.375c0-1.554-1.26-2.813-2.813-2.813zM23.438 27.188c0 0.517-0.421 0.938-0.938 0.938h-15c-0.518 0-0.938-0.419-0.938-0.938v-1.879h16.875v1.879zM23.438 24.371h-16.875v-18.746h16.875v18.746zM23.438 4.688h-16.875v-1.875c0-0.518 0.42-0.938 0.938-0.938h15c0.517 0 0.938 0.42 0.938 0.938v1.875zM16.875 3.281c0 0.259-0.211 0.469-0.469 0.469h-2.813c-0.26 0-0.469-0.21-0.469-0.469v0c0-0.26 0.209-0.469 0.469-0.469h2.813c0.258 0 0.469 0.209 0.469 0.469v0zM15.938 26.715c0 0.258-0.211 0.469-0.469 0.469h-0.938c-0.259 0-0.469-0.211-0.469-0.469v0c0-0.26 0.21-0.469 0.469-0.469h0.938c0.258 0 0.469 0.209 0.469 0.469v0z"></path>
</svg>
<svg id="icon-banknote" width="30" height="30" viewBox="0 0 30 30" x="320" y="0">
<path fill="#fe504f" d="M29.452 9.924l-9.375-9.375c-0.465-0.465-1.139-0.652-1.777-0.494-0.337 0.082-0.637 0.256-0.876 0.494-0.213 0.213-0.373 0.476-0.465 0.771-0.425 1.377-1.159 2.574-2.245 3.66-1.451 1.45-3.341 2.549-5.341 3.711-2.122 1.23-4.315 2.505-6.112 4.301-1.527 1.529-2.567 3.23-3.176 5.204-0.205 0.667-0.026 1.387 0.465 1.881l9.375 9.375c0.465 0.465 1.139 0.652 1.778 0.494 0.337-0.084 0.637-0.256 0.876-0.494 0.213-0.213 0.373-0.476 0.465-0.773 0.426-1.377 1.16-2.574 2.247-3.66 1.45-1.45 3.339-2.547 5.341-3.708 2.121-1.232 4.314-2.507 6.111-4.303 1.527-1.527 2.567-3.23 3.177-5.204 0.204-0.666 0.024-1.389-0.466-1.88zM11.25 28.125c-3.105-3.105-6.27-6.271-9.375-9.375 2.664-8.626 14.212-8.249 16.875-16.875 3.105 3.104 6.271 6.27 9.377 9.375-2.665 8.624-14.213 8.249-16.877 16.875zM18.339 13.969c-0.306-0.256-0.613-0.43-0.922-0.517-0.308-0.086-0.615-0.121-0.926-0.098-0.307 0.023-0.622 0.094-0.937 0.215-0.315 0.123-0.632 0.256-0.951 0.411-0.503-0.578-1.007-1.15-1.51-1.681 0.227-0.205 0.447-0.309 0.659-0.317 0.213-0.009 0.417 0.013 0.611 0.062 0.198 0.050 0.379 0.092 0.546 0.125 0.169 0.033 0.315-0.004 0.443-0.112 0.136-0.117 0.211-0.269 0.221-0.452 0.009-0.185-0.060-0.365-0.215-0.54-0.198-0.227-0.436-0.365-0.722-0.415-0.282-0.050-0.571-0.046-0.872 0.020-0.296 0.067-0.578 0.179-0.846 0.337s-0.482 0.319-0.641 0.476c-0.061-0.058-0.122-0.115-0.183-0.172-0.067-0.062-0.152-0.096-0.253-0.094-0.102 0-0.187 0.044-0.256 0.125-0.067 0.079-0.098 0.171-0.086 0.267 0.009 0.1 0.050 0.177 0.119 0.236 0.061 0.052 0.122 0.102 0.183 0.156-0.24 0.29-0.438 0.609-0.593 0.947-0.157 0.338-0.251 0.674-0.286 0.999-0.037 0.328-0.002 0.628 0.098 0.907 0.1 0.28 0.286 0.518 0.557 0.743 0.442 0.367 0.961 0.522 1.564 0.487 0.601-0.037 1.249-0.216 1.945-0.59 0.553 0.639 1.108 1.274 1.662 1.864-0.234 0.198-0.44 0.311-0.621 0.348-0.181 0.038-0.342 0.035-0.488-0.009-0.146-0.046-0.282-0.112-0.407-0.196-0.125-0.086-0.247-0.159-0.37-0.219-0.121-0.060-0.246-0.094-0.373-0.096s-0.263 0.060-0.413 0.188c-0.154 0.134-0.231 0.29-0.231 0.465s0.081 0.352 0.238 0.531c0.159 0.179 0.367 0.33 0.617 0.449s0.533 0.194 0.845 0.215c0.311 0.022 0.639-0.025 0.985-0.154 0.348-0.127 0.692-0.355 1.031-0.696 0.163 0.159 0.328 0.311 0.492 0.457 0.069 0.060 0.154 0.090 0.256 0.082 0.098-0.004 0.185-0.050 0.253-0.132 0.069-0.084 0.098-0.177 0.088-0.275s-0.050-0.174-0.117-0.229c-0.165-0.132-0.33-0.271-0.494-0.417 0.28-0.344 0.505-0.707 0.672-1.066 0.167-0.361 0.265-0.709 0.298-1.031 0.033-0.324-0.006-0.617-0.112-0.882-0.105-0.269-0.292-0.5-0.559-0.722zM13.098 14.604c-0.265 0.011-0.497-0.077-0.699-0.273-0.086-0.082-0.146-0.183-0.183-0.302-0.038-0.119-0.052-0.249-0.037-0.392 0.013-0.141 0.055-0.288 0.128-0.436 0.069-0.148 0.172-0.296 0.304-0.44 0.475 0.473 0.95 0.991 1.425 1.527-0.36 0.198-0.673 0.304-0.938 0.315zM17.52 16.481c-0.084 0.156-0.181 0.294-0.294 0.415-0.526-0.531-1.051-1.114-1.575-1.712 0.134-0.060 0.275-0.123 0.427-0.187s0.304-0.106 0.456-0.132c0.156-0.023 0.309-0.017 0.463 0.020 0.152 0.038 0.296 0.121 0.43 0.251 0.132 0.132 0.216 0.269 0.249 0.417 0.037 0.15 0.038 0.302 0.013 0.457-0.027 0.157-0.082 0.312-0.169 0.47zM13.797 20.794c0.185-0.149 0.457-0.142 0.626 0.031 0.184 0.183 0.184 0.482 0 0.665-0.015 0.015-0.031 0.025-0.048 0.038l0.002 0.002c-0.593 0.451-1.081 0.857-1.607 1.383-0.475 0.474-0.905 0.974-1.276 1.481l-0.599 0.82c-0.019 0.034-0.041 0.065-0.069 0.094-0.184 0.183-0.483 0.183-0.666 0-0.159-0.159-0.179-0.405-0.062-0.588l-0.002-0.002 0.641-0.876c0.4-0.547 0.861-1.084 1.37-1.593 0.53-0.532 1.102-1.006 1.688-1.456h0.002zM17.229 7.233c0.474-0.474 0.903-0.972 1.275-1.482l0.623-0.853c0.023-0.040 0.048-0.081 0.082-0.115 0.185-0.185 0.484-0.185 0.668 0 0.175 0.176 0.183 0.455 0.023 0.641l0.002 0.002-0.641 0.879c-0.401 0.547-0.861 1.082-1.37 1.591-0.53 0.53-1.101 1.006-1.687 1.456l-0.004-0.002c-0.187 0.172-0.476 0.168-0.655-0.013-0.185-0.185-0.185-0.486 0-0.67 0.033-0.035 0.071-0.059 0.11-0.081 0.551-0.421 1.083-0.862 1.573-1.353z"></path>
</svg>
<svg id="icon-laptop" width="30" height="30" viewBox="0 0 30 30" x="0" y="80">
<path fill="#fe504f" d="M3.75 7.5h22.5v12.5h2.5v-15h-27.5v15h2.5v-12.5zM20 21.25c-0.24 0.503-1.431 0.906-2.5 1.108v0.143h-5v-0.143c-1.069-0.201-2.26-0.605-2.5-1.108h-10v1.25c0 1.375 3.75 2.5 3.75 2.5h22.5c0 0 3.75-1.125 3.75-2.5v-1.25h-10zM25 23.75h-1.25v-1.25h1.25v1.25z"></path>
</svg>
<svg id="icon-pie-chart" width="30" height="30" viewBox="0 0 30 30" x="0" y="160">
<path fill="#fe504f" d="M13.125 16.875v-13.125c-7.249 0-13.125 5.876-13.125 13.125s5.876 13.125 13.125 13.125 13.125-5.876 13.125-13.125c0-2.11-0.499-4.104-1.384-5.871l-11.741 5.871zM26.741 7.254c-2.155-4.301-6.603-7.254-11.741-7.254v13.125l11.741-5.871z"></path>
</svg>
<svg id="icon-meter" width="30" height="30" viewBox="0 0 30 30" x="80" y="160">
<path fill="#fe504f" d="M15 1.875c8.284 0 15 6.716 15 15 0 5.648-3.122 10.566-7.735 13.125h-14.531c-4.612-2.559-7.735-7.477-7.735-13.125 0-8.284 6.716-15 15-15zM23.494 25.369c2.269-2.269 3.518-5.285 3.518-8.494h-2.637v-1.875h2.491c-0.205-1.318-0.627-2.582-1.247-3.75h-3.119v-1.875h1.883c-0.277-0.345-0.573-0.677-0.89-0.994-1.354-1.354-2.975-2.345-4.744-2.924v2.042h-1.875v-2.491c-0.615-0.096-1.241-0.145-1.875-0.145s-1.26 0.050-1.875 0.145v2.491h-1.875v-2.042c-1.769 0.579-3.389 1.57-4.744 2.924-0.317 0.317-0.613 0.649-0.89 0.994h1.883v1.875h-3.119c-0.62 1.168-1.042 2.432-1.247 3.75h2.491v1.875h-2.637c0 3.208 1.249 6.225 3.518 8.494 0.314 0.314 0.642 0.607 0.983 0.881h5.635l1.071-15h1.607l1.071 15h5.635c0.341-0.274 0.669-0.568 0.983-0.881z"></path>
</svg>
</svg>
