<?xml version="1.0" encoding="utf-8"?>
<!-- Generated by IcoMoon.io -->
<!DOCTYPE svg PUBLIC "-//W3C//DTD SVG 1.1//EN" "http://www.w3.org/Graphics/SVG/1.1/DTD/svg11.dtd">
<svg version="1.1" xmlns="http://www.w3.org/2000/svg" xmlns:xlink="http://www.w3.org/1999/xlink" width="291" height="20" viewBox="0 0 291 20">
<svg id="icon-linkedin" width="20" height="20" viewBox="0 0 20 20" x="0" y="0">
<path fill="#fe504f" d="M3.895 6.975v11.060h-3.683v-11.060h3.683zM4.129 3.56q0.011 0.815-0.564 1.362t-1.512 0.547h-0.022q-0.915 0-1.473-0.547t-0.558-1.362q0-0.826 0.575-1.367t1.501-0.541 1.484 0.541 0.569 1.367zM17.143 11.696v6.339h-3.672v-5.915q0-1.172-0.452-1.836t-1.412-0.664q-0.703 0-1.177 0.385t-0.709 0.954q-0.123 0.335-0.123 0.904v6.172h-3.672q0.022-4.453 0.022-7.221t-0.011-3.304l-0.011-0.536h3.672v1.607h-0.022q0.223-0.357 0.458-0.625t0.631-0.58 0.971-0.485 1.278-0.173q1.908 0 3.069 1.267t1.161 3.711z"></path>
</svg>
<svg id="icon-twitter" width="19" height="20" viewBox="0 0 19 20" x="70" y="0">
<path fill="#fe504f" d="M18.080 4.554q-0.748 1.094-1.808 1.864 0.011 0.156 0.011 0.469 0 1.451-0.424 2.896t-1.289 2.773-2.059 2.349-2.879 1.629-3.605 0.608q-3.025 0-5.536-1.618 0.391 0.045 0.871 0.045 2.511 0 4.475-1.54-1.172-0.022-2.098-0.72t-1.272-1.78q0.368 0.056 0.681 0.056 0.48 0 0.949-0.123-1.25-0.257-2.070-1.244t-0.82-2.294v-0.045q0.759 0.424 1.629 0.458-0.737-0.491-1.172-1.283t-0.435-1.719q0-0.982 0.491-1.819 1.35 1.663 3.287 2.662t4.146 1.11q-0.089-0.424-0.089-0.826 0-1.496 1.055-2.55t2.55-1.055q1.563 0 2.634 1.138 1.217-0.234 2.288-0.871-0.413 1.283-1.585 1.987 1.038-0.112 2.076-0.558z"></path>
</svg>
<svg id="icon-youtube" width="20" height="20" viewBox="0 0 20 20" x="140" y="0">
<path fill="#fe504f" d="M10.837 13.884v2.355q0 0.748-0.435 0.748-0.257 0-0.502-0.246v-3.359q0.246-0.246 0.502-0.246 0.435 0 0.435 0.748zM14.609 13.895v0.513h-1.004v-0.513q0-0.759 0.502-0.759t0.502 0.759zM3.828 11.462h1.194v-1.049h-3.482v1.049h1.172v6.35h1.116v-6.35zM7.042 17.813h0.993v-5.513h-0.993v4.219q-0.335 0.469-0.636 0.469-0.201 0-0.234-0.234-0.011-0.033-0.011-0.391v-4.063h-0.993v4.364q0 0.547 0.089 0.815 0.134 0.413 0.647 0.413 0.536 0 1.138-0.681v0.603zM11.83 16.161v-2.199q0-0.815-0.1-1.105-0.19-0.625-0.792-0.625-0.558 0-1.038 0.603v-2.422h-0.993v7.4h0.993v-0.536q0.502 0.614 1.038 0.614 0.603 0 0.792-0.614 0.1-0.301 0.1-1.116zM15.603 16.049v-0.145h-1.016q0 0.569-0.022 0.681-0.078 0.402-0.446 0.402-0.513 0-0.513-0.77v-0.971h1.998v-1.15q0-0.882-0.301-1.295-0.435-0.569-1.183-0.569-0.759 0-1.194 0.569-0.313 0.413-0.313 1.295v1.931q0 0.882 0.324 1.295 0.435 0.569 1.205 0.569 0.804 0 1.205-0.592 0.201-0.301 0.234-0.603 0.022-0.1 0.022-0.647zM8.817 5.859v-2.344q0-0.77-0.48-0.77t-0.48 0.77v2.344q0 0.781 0.48 0.781t0.48-0.781zM16.842 14.241q0 2.612-0.29 3.906-0.156 0.658-0.647 1.105t-1.138 0.513q-2.054 0.234-6.194 0.234t-6.194-0.234q-0.647-0.067-1.144-0.513t-0.642-1.105q-0.29-1.25-0.29-3.906 0-2.612 0.29-3.906 0.156-0.658 0.647-1.105t1.15-0.525q2.042-0.223 6.183-0.223t6.194 0.223q0.647 0.078 1.144 0.525t0.642 1.105q0.29 1.25 0.29 3.906zM5.703 0h1.138l-1.35 4.453v3.025h-1.116v-3.025q-0.156-0.826-0.681-2.366-0.413-1.15-0.725-2.087h1.183l0.792 2.935zM9.833 3.717v1.953q0 0.904-0.313 1.317-0.413 0.569-1.183 0.569-0.748 0-1.172-0.569-0.313-0.424-0.313-1.317v-1.953q0-0.893 0.313-1.306 0.424-0.569 1.172-0.569 0.77 0 1.183 0.569 0.313 0.413 0.313 1.306zM13.571 1.908v5.569h-1.016v-0.614q-0.592 0.692-1.15 0.692-0.513 0-0.658-0.413-0.089-0.268-0.089-0.837v-4.397h1.016v4.096q0 0.368 0.011 0.391 0.033 0.246 0.234 0.246 0.301 0 0.636-0.48v-4.252h1.016z"></path>
</svg>
<svg id="icon-facebook" width="11" height="20" viewBox="0 0 11 20" x="210" y="0">
<path fill="#fe504f" d="M10.703 0.134v2.946h-1.752q-0.96 0-1.295 0.402t-0.335 1.205v2.109h3.27l-0.435 3.304h-2.835v8.471h-3.415v-8.471h-2.846v-3.304h2.846v-2.433q0-2.076 1.161-3.22t3.092-1.144q1.641 0 2.545 0.134z"></path>
</svg>
</svg>
