<?xml version="1.0" encoding="utf-8"?>
<!-- Generator: Adobe Illustrator 18.1.0, SVG Export Plug-In . SVG Version: 6.00 Build 0)  -->
<svg version="1.1" id="Capa_1" xmlns="http://www.w3.org/2000/svg" xmlns:xlink="http://www.w3.org/1999/xlink" x="0px" y="0px"
	 viewBox="-703 285 512 512" enable-background="new -703 285 512 512" xml:space="preserve">
<g>
	<g>
		<g>
			<path d="M-447,644.7c-16.6,0-30.2,13.5-30.2,30.2v24.8c0,4.1,3.4,7.5,7.5,7.5h45.3c4.1,0,7.5-3.4,7.5-7.5v-24.8
				C-416.8,658.2-430.4,644.7-447,644.7L-447,644.7z M-431.8,692.2h-30.3v-17.3c0-8.4,6.8-15.2,15.2-15.2s15.2,6.8,15.2,15.2
				L-431.8,692.2z"/>
			<path d="M-199.7,557.6L-242,446.5c7.8-1.6,13.7-8.5,13.7-16.8V409c0-9.5-7.7-17.2-17.2-17.2h-86.2c-1.5-20.3-8.3-39.7-19.9-56.5
				c-2.3-3.4-7-4.3-10.4-1.9c-3.4,2.3-4.3,7-1.9,10.4c11.5,16.8,17.6,36.5,17.6,56.9c0,55.5-45.2,100.7-100.7,100.7
				s-100.7-45.2-100.7-100.7S-502.5,300-447,300c21.7,0,42.4,6.8,59.8,19.7c3.3,2.5,8,1.8,10.5-1.6c2.5-3.3,1.8-8-1.6-10.5
				c-20-14.8-43.8-22.6-68.7-22.6c-60.8,0-110.8,47.1-115.3,106.8h-86.2c-9.5,0-17.2,7.7-17.2,17.2v20.7c0,8.3,5.9,15.2,13.7,16.8
				l-42.3,111.2c-2,5.3-1.3,11.2,1.9,15.9c2.2,3.2,5.4,5.5,9,6.6v199.4c0,9.6,7.9,17.5,17.5,17.5h437.8c9.6,0,17.5-7.9,17.5-17.5
				V651.8c0-4.1-3.4-7.5-7.5-7.5s-7.5,3.4-7.5,7.5v127.7c0,1.4-1.1,2.5-2.5,2.5h-159.1V674.8c0-33-26.8-59.8-59.8-59.8
				s-59.8,26.8-59.8,59.8V782h-159.1c-1.4,0-2.5-1.1-2.5-2.5V580.9h442.8v34.9c0,4.1,3.4,7.5,7.5,7.5s7.5-3.4,7.5-7.5v-35.7
				c3.6-1.1,6.8-3.4,9-6.6C-198.4,568.8-197.7,562.9-199.7,557.6z M-491.8,674.8c0-24.7,20.1-44.8,44.8-44.8s44.8,20.1,44.8,44.8
				V782h-89.6L-491.8,674.8L-491.8,674.8z M-243.3,409v20.7c0,1.2-1,2.2-2.2,2.2h-90.1c2.2-8,3.6-16.4,4.1-25h86
				C-244.3,406.8-243.3,407.8-243.3,409L-243.3,409z M-680.3,563l44.2-116.2h27.3c4.1,0,7.5-3.4,7.5-7.5s-3.4-7.5-7.5-7.5h-39.8
				c-1.2,0-2.2-1-2.2-2.2V409c0-1.2,1-2.2,2.2-2.2h86c0.5,8.6,1.9,17,4.1,25h-14.4c-4.1,0-7.5,3.4-7.5,7.5s3.4,7.5,7.5,7.5h19.7
				c2.3,5.2,4.9,10.1,7.8,14.9h-17.8c-10.2,0-18.5,8.3-18.5,18.5v16.7h-2.7c-4.1,0-7.5,3.4-7.5,7.5c0,4.1,3.4,7.5,7.5,7.5h31.9
				c4.1,0,7.5-3.4,7.5-7.5c0-4.1-3.4-7.5-7.5-7.5h-14.2v-16.7c0-1.9,1.6-3.5,3.5-3.5h29c21.2,24.3,52.4,39.6,87.1,39.6
				s65.9-15.4,87.1-39.6h29c1.9,0,3.5,1.6,3.5,3.5v16.7h-14.2c-4.1,0-7.5,3.4-7.5,7.5c0,4.1,3.4,7.5,7.5,7.5h31.9
				c4.1,0,7.5-3.4,7.5-7.5c0-4.1-3.4-7.5-7.5-7.5h-2.7v-16.7c0-10.2-8.3-18.5-18.5-18.5h-17.8c3-4.7,5.6-9.7,7.8-14.9h83l44.2,116.2
				c0.4,0.9,0,1.7-0.2,2c-0.2,0.4-0.8,0.9-1.8,0.9h-462.5c-1,0-1.5-0.6-1.8-0.9C-680.3,564.6-680.6,563.9-680.3,563L-680.3,563z"/>
			<path d="M-550.1,619.3h-79.5c-9.6,0-17.4,7.8-17.4,17.4v75c-4.4,1.9-7.4,6.3-7.4,11.4v16.8c0,6.9,5.6,12.4,12.4,12.4h103.6
				c6.9,0,12.4-5.6,12.4-12.4V723c0-4.8-2.8-9-6.8-11.1v-75.3C-532.7,627.1-540.5,619.3-550.1,619.3L-550.1,619.3z M-629.6,634.3
				h79.5c1.3,0,2.4,1.1,2.4,2.4v73.9H-632v-73.9C-632,635.4-630.9,634.3-629.6,634.3z M-540.9,737.2h-98.5v-11.6h98.5V737.2z"/>
			<path d="M-264.4,619.3h-79.5c-9.6,0-17.4,7.8-17.4,17.4v75.1c-4.2,2-7.1,6.3-7.1,11.2v16.8c0,6.9,5.6,12.4,12.4,12.4h103.6
				c6.9,0,12.4-5.6,12.4-12.4V723c0-4.9-2.9-9.2-7.1-11.2v-75.1C-247,627.1-254.8,619.3-264.4,619.3z M-343.9,634.3h79.5
				c1.3,0,2.4,1.1,2.4,2.4v73.9h-84.3v-73.9C-346.3,635.4-345.3,634.3-343.9,634.3z M-254.9,737.2h-98.5v-11.6h98.5V737.2z"/>
			<path d="M-424.3,718.2c-4.1,0-7.5,3.4-7.5,7.5v3.4c0,4.1,3.4,7.5,7.5,7.5s7.5-3.4,7.5-7.5v-3.4
				C-416.8,721.6-420.2,718.2-424.3,718.2z"/>
			<path d="M-464.9,467.8c0.7,0,1.3,0.1,2,0.1c3.5,0,6.9-0.6,10.2-1.9c3.7-1.4,7.7-1.4,11.3,0c3.9,1.5,8,2.1,12.2,1.8
				c13.7-0.9,24.9-11.9,26.1-25.6c0.9-9.9-3.3-19.4-11.3-25.3c-3.3-2.5-5.5-6-6.1-9.8c-1-6.6-4.4-12.6-9.5-16.9
				c-10.5-9.1-26.4-9-36.9,0.1c-5.4,4.7-8.8,11.2-9.5,18.2c-0.4,3.8-2.3,7.4-5.2,10c-6.7,5.9-10.1,14.5-9.4,23.4
				C-489.9,455.8-478.7,466.9-464.9,467.8L-464.9,467.8z M-471.6,429.8c5.7-5.1,9.4-12,10.2-19.6c0.4-3.3,2-6.3,4.5-8.5
				c2.5-2.1,5.6-3.2,8.6-3.2c3.1,0,6.1,1.1,8.6,3.2c2.4,2.1,4,4.8,4.5,7.9c1.2,7.7,5.5,14.7,12,19.5c3.7,2.8,5.7,7.2,5.3,11.9
				c-0.6,6.4-5.8,11.5-12.2,11.9c-2,0.1-3.9-0.2-5.7-0.9c-7.2-2.8-15-2.8-22.2,0c-1.8,0.7-3.8,1-5.7,0.9
				c-6.5-0.4-11.7-5.6-12.2-12.1C-476.4,436.6-474.8,432.6-471.6,429.8L-471.6,429.8z"/>
			<path d="M-473.3,382.3c12.3,0,22.3-10,22.3-22.3s-10-22.3-22.3-22.3s-22.3,10-22.3,22.3S-485.6,382.3-473.3,382.3z M-473.3,352.8
				c4,0,7.3,3.3,7.3,7.3s-3.3,7.3-7.3,7.3s-7.3-3.3-7.3-7.3S-477.3,352.8-473.3,352.8z"/>
			<path d="M-398.4,360.1c0-12.3-10-22.3-22.3-22.3s-22.3,10-22.3,22.3s10,22.3,22.3,22.3S-398.4,372.4-398.4,360.1z M-428,360.1
				c0-4,3.3-7.3,7.3-7.3s7.3,3.3,7.3,7.3s-3.3,7.3-7.3,7.3S-428,364.1-428,360.1z"/>
			<path d="M-532.6,395.6c0,12.3,10,22.3,22.3,22.3s22.3-10,22.3-22.3s-10-22.3-22.3-22.3S-532.6,383.4-532.6,395.6z M-503,395.6
				c0,4-3.3,7.3-7.3,7.3s-7.3-3.3-7.3-7.3s3.3-7.3,7.3-7.3S-503,391.6-503,395.6z"/>
			<path d="M-383.7,417.9c12.3,0,22.3-10,22.3-22.3s-10-22.3-22.3-22.3s-22.3,10-22.3,22.3S-396,417.9-383.7,417.9z M-383.7,388.4
				c4,0,7.3,3.3,7.3,7.3s-3.3,7.3-7.3,7.3s-7.3-3.3-7.3-7.3S-387.7,388.4-383.7,388.4z"/>
		</g>
	</g>
</g>
</svg>
