<?xml version="1.0" encoding="utf-8"?>
<!-- Generator: Adobe Illustrator 15.0.0, SVG Export Plug-In  -->
<!DOCTYPE svg PUBLIC "-//W3C//DTD SVG 1.1//EN" "http://www.w3.org/Graphics/SVG/1.1/DTD/svg11.dtd" [
	<!ENTITY ns_flows "http://ns.adobe.com/Flows/1.0/">
]>
<svg version="1.1"
	 xmlns="http://www.w3.org/2000/svg" xmlns:xlink="http://www.w3.org/1999/xlink" xmlns:a="http://ns.adobe.com/AdobeSVGViewerExtensions/3.0/"
	 x="0px" y="0px" width="595px" height="842px" viewBox="-199.314 -214.954 595 842"
	 enable-background="new -199.314 -214.954 595 842" xml:space="preserve">
<defs>
</defs>
<g>
	<g>
		<path fill="#444748" d="M10.725,27.49l-9.629-1.737c1.082-3.876,2.945-6.746,5.589-8.609c2.643-1.862,6.57-2.794,11.782-2.794
			c4.732,0,8.256,0.561,10.573,1.681c2.315,1.12,3.946,2.543,4.89,4.267c0.944,1.725,1.417,4.89,1.417,9.497L35.232,42.18
			c0,3.524,0.17,6.124,0.51,7.798c0.34,1.675,0.975,3.468,1.907,5.381H27.151c-0.277-0.704-0.617-1.749-1.02-3.134
			c-0.177-0.629-0.302-1.045-0.378-1.246c-1.813,1.762-3.751,3.084-5.815,3.965c-2.064,0.881-4.267,1.321-6.608,1.321
			c-4.129,0-7.382-1.12-9.761-3.36S0,47.831,0,44.407c0-2.266,0.542-4.285,1.624-6.061c1.082-1.774,2.599-3.134,4.55-4.078
			c1.951-0.944,4.764-1.769,8.439-2.474c4.959-0.931,8.396-1.799,10.309-2.605v-1.057c0-2.04-0.504-3.493-1.51-4.362
			c-1.007-0.868-2.908-1.303-5.702-1.303c-1.888,0-3.361,0.372-4.418,1.114C12.235,24.325,11.379,25.628,10.725,27.49z M24.923,36.1
			c-1.359,0.453-3.512,0.995-6.457,1.624c-2.946,0.63-4.872,1.246-5.778,1.851c-1.385,0.981-2.077,2.228-2.077,3.738
			c0,1.485,0.553,2.77,1.662,3.852c1.107,1.083,2.517,1.624,4.229,1.624c1.913,0,3.738-0.629,5.476-1.889
			c1.284-0.956,2.127-2.127,2.53-3.512c0.277-0.906,0.416-2.63,0.416-5.173V36.1z"/>
		<path fill="#444748" d="M45.352,55.358V0h10.611v19.938c3.272-3.726,7.149-5.589,11.63-5.589c4.884,0,8.924,1.769,12.122,5.306
			c3.197,3.537,4.795,8.616,4.795,15.236c0,6.848-1.63,12.121-4.89,15.822c-3.26,3.7-7.219,5.551-11.876,5.551
			c-2.291,0-4.55-0.573-6.778-1.718c-2.228-1.146-4.148-2.838-5.759-5.079v5.891H45.352z M55.887,34.438
			c0,4.154,0.654,7.226,1.963,9.214c1.837,2.819,4.28,4.229,7.326,4.229c2.341,0,4.336-1.001,5.985-3.002
			c1.648-2.002,2.474-5.154,2.474-9.46c0-4.581-0.831-7.885-2.493-9.912c-1.661-2.026-3.789-3.04-6.381-3.04
			c-2.543,0-4.658,0.988-6.344,2.965S55.887,30.411,55.887,34.438z"/>
		<path fill="#444748" d="M111.435,15.256v8.458h-7.251v16.162c0,3.273,0.07,5.18,0.209,5.721c0.137,0.542,0.453,0.988,0.943,1.341
			s1.088,0.528,1.793,0.528c0.982,0,2.404-0.34,4.268-1.02l0.906,8.232c-2.467,1.058-5.262,1.586-8.383,1.586
			c-1.914,0-3.639-0.321-5.173-0.963c-1.536-0.642-2.662-1.473-3.38-2.492c-0.717-1.02-1.215-2.397-1.491-4.135
			c-0.227-1.233-0.34-3.726-0.34-7.477V23.714h-4.872v-8.458h4.872V7.288l10.648-6.193v14.161H111.435z"/>
		<path fill="#444748" d="M142.021,42.595l10.573,1.775c-1.359,3.877-3.507,6.829-6.438,8.854c-2.934,2.027-6.603,3.04-11.008,3.04
			c-6.973,0-12.135-2.278-15.482-6.835c-2.643-3.649-3.965-8.257-3.965-13.82c0-6.646,1.737-11.851,5.211-15.614
			c3.475-3.764,7.867-5.646,13.18-5.646c5.966,0,10.674,1.97,14.123,5.909c3.448,3.94,5.098,9.976,4.946,18.107h-26.585
			c0.076,3.146,0.932,5.595,2.568,7.344c1.637,1.75,3.676,2.625,6.117,2.625c1.662,0,3.059-0.453,4.191-1.359
			S141.441,44.609,142.021,42.595z M142.625,31.871c-0.075-3.071-0.868-5.406-2.379-7.005c-1.51-1.599-3.348-2.398-5.513-2.398
			c-2.316,0-4.229,0.844-5.739,2.53c-1.512,1.687-2.254,3.979-2.229,6.873H142.625z"/>
		<path fill="#444748" d="M161.809,55.358V0h10.611v55.358H161.809z"/>
	</g>
</g>
<path fill="#FFFFFF" d="M16.146,77.076h-3.294l-1.309-3.406H5.549l-1.238,3.406H1.1l5.84-14.994h3.201L16.146,77.076z
	 M10.571,71.144L8.505,65.58l-2.025,5.563H10.571z"/>
<path fill="#FFFFFF" d="M17.884,77.792l3.283,0.399c0.054,0.382,0.181,0.644,0.378,0.787c0.272,0.205,0.702,0.307,1.289,0.307
	c0.75,0,1.313-0.112,1.688-0.337c0.252-0.15,0.443-0.393,0.573-0.727c0.089-0.238,0.133-0.679,0.133-1.319v-1.585
	c-0.859,1.173-1.943,1.759-3.252,1.759c-1.459,0-2.615-0.617-3.468-1.852c-0.668-0.975-1.002-2.188-1.002-3.641
	c0-1.821,0.438-3.212,1.314-4.174c0.876-0.961,1.965-1.441,3.268-1.441c1.343,0,2.451,0.59,3.324,1.77v-1.524h2.69v9.747
	c0,1.282-0.106,2.24-0.317,2.874c-0.211,0.635-0.508,1.132-0.89,1.494c-0.382,0.361-0.892,0.644-1.529,0.849
	c-0.638,0.204-1.444,0.307-2.419,0.307c-1.841,0-3.147-0.315-3.917-0.946c-0.771-0.631-1.156-1.43-1.156-2.398
	C17.874,78.044,17.877,77.929,17.884,77.792z M20.451,71.42c0,1.152,0.224,1.996,0.67,2.531c0.447,0.536,0.998,0.803,1.652,0.803
	c0.703,0,1.296-0.274,1.78-0.823c0.484-0.549,0.727-1.361,0.727-2.439c0-1.125-0.232-1.96-0.696-2.506
	c-0.464-0.545-1.05-0.818-1.759-0.818c-0.688,0-1.256,0.269-1.703,0.804C20.674,69.506,20.451,70.322,20.451,71.42z"/>
<path fill="#FFFFFF" d="M37.654,73.619l2.864,0.48c-0.368,1.051-0.95,1.85-1.744,2.398c-0.794,0.549-1.789,0.823-2.982,0.823
	c-1.889,0-3.287-0.616-4.193-1.851c-0.716-0.989-1.074-2.236-1.074-3.744c0-1.8,0.47-3.21,1.411-4.229
	c0.941-1.019,2.131-1.528,3.57-1.528c1.616,0,2.891,0.533,3.825,1.601s1.381,2.702,1.34,4.904h-7.201
	c0.021,0.853,0.252,1.516,0.696,1.989c0.443,0.474,0.996,0.711,1.657,0.711c0.45,0,0.829-0.123,1.135-0.368
	C37.266,74.56,37.497,74.165,37.654,73.619z M37.818,70.714c-0.021-0.831-0.235-1.464-0.645-1.896
	c-0.409-0.434-0.907-0.65-1.493-0.65c-0.627,0-1.146,0.229-1.555,0.686s-0.61,1.078-0.604,1.861H37.818z"/>
<path fill="#FFFFFF" d="M53.313,77.076h-2.874v-5.544c0-1.173-0.062-1.931-0.184-2.275s-0.322-0.612-0.598-0.803
	c-0.276-0.191-0.609-0.287-0.998-0.287c-0.498,0-0.944,0.137-1.34,0.409c-0.396,0.273-0.667,0.635-0.813,1.085
	c-0.147,0.449-0.22,1.281-0.22,2.495v4.92h-2.875V66.214h2.67v1.596c0.948-1.228,2.141-1.841,3.58-1.841
	c0.634,0,1.214,0.114,1.739,0.342c0.525,0.229,0.922,0.521,1.192,0.875c0.269,0.354,0.457,0.757,0.563,1.207
	c0.105,0.45,0.158,1.095,0.158,1.933V77.076z"/>
<path fill="#FFFFFF" d="M66.118,69.426l-2.833,0.511c-0.096-0.565-0.312-0.992-0.649-1.278s-0.776-0.43-1.314-0.43
	c-0.716,0-1.287,0.247-1.713,0.742c-0.426,0.494-0.64,1.321-0.64,2.479c0,1.289,0.216,2.199,0.649,2.731s1.015,0.798,1.744,0.798
	c0.545,0,0.992-0.155,1.34-0.466c0.348-0.31,0.593-0.844,0.736-1.601l2.823,0.48c-0.293,1.296-0.856,2.274-1.688,2.936
	c-0.832,0.662-1.947,0.992-3.344,0.992c-1.589,0-2.855-0.501-3.8-1.503c-0.945-1.003-1.417-2.39-1.417-4.163
	c0-1.793,0.474-3.189,1.421-4.188s2.23-1.498,3.846-1.498c1.323,0,2.375,0.284,3.156,0.854
	C65.217,67.392,65.777,68.26,66.118,69.426z"/>
<path fill="#FFFFFF" d="M75.006,73.619l2.864,0.48c-0.368,1.051-0.95,1.85-1.744,2.398c-0.794,0.549-1.789,0.823-2.982,0.823
	c-1.889,0-3.287-0.616-4.193-1.851c-0.716-0.989-1.074-2.236-1.074-3.744c0-1.8,0.47-3.21,1.411-4.229
	c0.941-1.019,2.131-1.528,3.57-1.528c1.616,0,2.891,0.533,3.825,1.601s1.381,2.702,1.34,4.904h-7.201
	c0.021,0.853,0.252,1.516,0.696,1.989c0.443,0.474,0.996,0.711,1.657,0.711c0.45,0,0.829-0.123,1.135-0.368
	C74.618,74.56,74.849,74.165,75.006,73.619z M75.17,70.714c-0.021-0.831-0.235-1.464-0.645-1.896
	c-0.409-0.434-0.907-0.65-1.493-0.65c-0.627,0-1.146,0.229-1.555,0.686s-0.61,1.078-0.604,1.861H75.17z"/>
<path fill="#FFFFFF" d="M89.171,77.076l-3.58-14.994h3.099l2.26,10.3l2.741-10.3h3.6l2.629,10.474l2.301-10.474h3.048l-3.642,14.994
	h-3.211l-2.987-11.21l-2.977,11.21H89.171z"/>
<path fill="#FFFFFF" d="M113.125,73.619l2.864,0.48c-0.368,1.051-0.95,1.85-1.743,2.398c-0.795,0.549-1.789,0.823-2.982,0.823
	c-1.889,0-3.287-0.616-4.193-1.851c-0.716-0.989-1.074-2.236-1.074-3.744c0-1.8,0.471-3.21,1.412-4.229
	c0.94-1.019,2.131-1.528,3.569-1.528c1.616,0,2.892,0.533,3.825,1.601s1.381,2.702,1.34,4.904h-7.201
	c0.021,0.853,0.253,1.516,0.696,1.989c0.442,0.474,0.995,0.711,1.657,0.711c0.449,0,0.828-0.123,1.135-0.368
	C112.736,74.56,112.969,74.165,113.125,73.619z M113.289,70.714c-0.021-0.831-0.235-1.464-0.645-1.896
	c-0.409-0.434-0.906-0.65-1.493-0.65c-0.628,0-1.146,0.229-1.555,0.686s-0.61,1.078-0.604,1.861H113.289z"/>
<path fill="#FFFFFF" d="M118.781,77.076V62.082h2.874v5.4c0.886-1.01,1.937-1.514,3.15-1.514c1.323,0,2.417,0.479,3.283,1.437
	s1.299,2.334,1.299,4.127c0,1.855-0.441,3.283-1.324,4.286c-0.884,1.002-1.956,1.503-3.217,1.503c-0.62,0-1.233-0.155-1.836-0.465
	c-0.604-0.311-1.124-0.769-1.56-1.376v1.596H118.781z M121.635,71.41c0,1.125,0.178,1.957,0.531,2.495
	c0.498,0.764,1.16,1.146,1.984,1.146c0.635,0,1.176-0.271,1.621-0.813c0.447-0.543,0.67-1.396,0.67-2.563
	c0-1.241-0.225-2.136-0.674-2.685c-0.451-0.549-1.027-0.824-1.729-0.824c-0.689,0-1.262,0.269-1.719,0.804
	S121.635,70.319,121.635,71.41z"/>
<g>
	<g>
		<path fill="#444748" d="M186.714,0c1.167,0,2.286,0.292,3.356,0.875c1.072,0.583,1.914,1.42,2.527,2.509
			c0.613,1.09,0.919,2.229,0.919,3.419c0,1.185-0.3,2.313-0.901,3.389c-0.602,1.074-1.438,1.912-2.514,2.513
			c-1.074,0.602-2.203,0.901-3.388,0.901s-2.313-0.3-3.388-0.901c-1.074-0.601-1.912-1.438-2.514-2.513
			c-0.601-1.075-0.901-2.204-0.901-3.389c0-1.189,0.307-2.329,0.919-3.419c0.613-1.089,1.455-1.926,2.527-2.509
			C184.429,0.292,185.547,0,186.714,0z M186.723,1.332c-0.936,0-1.832,0.234-2.69,0.702s-1.535,1.14-2.029,2.016
			c-0.495,0.877-0.741,1.794-0.741,2.753c0,0.954,0.24,1.862,0.723,2.727s1.156,1.54,2.021,2.025
			c0.863,0.485,1.77,0.728,2.717,0.728c0.953,0,1.861-0.242,2.723-0.728s1.535-1.161,2.02-2.025
			c0.486-0.864,0.729-1.772,0.729-2.727c0-0.959-0.247-1.876-0.741-2.753c-0.495-0.876-1.173-1.548-2.034-2.016
			S187.658,1.332,186.723,1.332z M183.641,10.444V3.224h1.466c1.374,0,2.144,0.007,2.31,0.019c0.484,0.041,0.862,0.138,1.132,0.288
			c0.27,0.151,0.494,0.382,0.675,0.693c0.181,0.311,0.271,0.655,0.271,1.034c0,0.521-0.171,0.967-0.512,1.337
			c-0.34,0.37-0.818,0.6-1.434,0.688c0.219,0.083,0.388,0.174,0.506,0.271c0.119,0.098,0.281,0.282,0.488,0.555
			c0.054,0.071,0.231,0.364,0.533,0.879l0.853,1.457h-1.812l-0.604-1.172c-0.408-0.788-0.746-1.284-1.013-1.488
			s-0.604-0.306-1.013-0.306h-0.382v2.966H183.641z M185.106,6.341h0.595c0.848,0,1.373-0.032,1.576-0.098
			c0.205-0.064,0.366-0.179,0.484-0.342c0.119-0.162,0.178-0.348,0.178-0.555c0-0.201-0.058-0.381-0.173-0.537
			c-0.116-0.157-0.28-0.27-0.493-0.338c-0.213-0.067-0.736-0.102-1.572-0.102h-0.595V6.341z"/>
	</g>
</g>
</svg>
