<?xml version="1.0" encoding="utf-8"?>
<!-- Generator: Adobe Illustrator 22.0.0, SVG Export Plug-In . SVG Version: 6.00 Build 0)  -->
<svg version="1.1" id="Capa_1" xmlns="http://www.w3.org/2000/svg" xmlns:xlink="http://www.w3.org/1999/xlink" x="0px" y="0px"
	 viewBox="0 0 608.3 304.7" style="enable-background:new 0 0 608.3 304.7;" xml:space="preserve">
<style type="text/css">
	.st0{fill:#EA5B27;}
</style>
<path class="st0" d="M189.6,192.1l0.3,0.9c-1.8,21.2-9.4,37.9-22.7,50.1c-13.3,12.2-31.1,18.3-53.4,18.3c-23.6,0-42.6-8.5-57-25.5
	c-14.4-17-21.7-39-21.7-66.1v-34.5c0-27,7.2-49,21.7-66.1c14.4-17.1,33.4-25.7,57-25.7c22.5,0,40.3,6,53.5,17.9
	c13.2,11.9,20.7,28.7,22.5,50.3l-0.3,0.9h-16.3c-2.3-17.5-8.4-31-18.1-40.3c-9.7-9.3-23.5-14-41.4-14c-18.5,0-33.4,7.2-44.6,21.5
	s-16.8,32.7-16.8,55.1v34.7c0,22.7,5.6,41.2,16.8,55.4c11.2,14.3,26.1,21.4,44.6,21.4c17.8,0,31.7-4.5,41.4-13.6
	c9.8-9.1,15.8-22.7,18-40.8H189.6z"/>
<path class="st0" d="M352.3,160.1h-97v75.6h111.8v22.5H226.6V46.5h138.9v22.5H255.3v68.5h97V160.1z"/>
<path class="st0" d="M574.3,258.3h-49l-77.5-135l-0.9,0.3v134.7h-49.3V46.5h49.3l77.5,135l0.9-0.3V46.5h49V258.3z"/>
</svg>
