<?xml version="1.0" encoding="UTF-8" standalone="no"?>
<svg
   xmlns:dc="http://purl.org/dc/elements/1.1/"
   xmlns:cc="http://creativecommons.org/ns#"
   xmlns:rdf="http://www.w3.org/1999/02/22-rdf-syntax-ns#"
   xmlns:svg="http://www.w3.org/2000/svg"
   xmlns="http://www.w3.org/2000/svg"
   xmlns:sodipodi="http://sodipodi.sourceforge.net/DTD/sodipodi-0.dtd"
   xmlns:inkscape="http://www.inkscape.org/namespaces/inkscape"
   viewBox="0 0 512 512"
   version="1.1"
   id="svg6"
   sodipodi:docname="popup.svg"
   inkscape:version="0.92.3 (2405546, 2018-03-11)">
  <metadata
     id="metadata12">
    <rdf:RDF>
      <cc:Work
         rdf:about="">
        <dc:format>image/svg+xml</dc:format>
        <dc:type
           rdf:resource="http://purl.org/dc/dcmitype/StillImage" />
      </cc:Work>
    </rdf:RDF>
  </metadata>
  <defs
     id="defs10" />
  <sodipodi:namedview
     pagecolor="#ffffff"
     bordercolor="#666666"
     borderopacity="1"
     objecttolerance="10"
     gridtolerance="10"
     guidetolerance="10"
     inkscape:pageopacity="0"
     inkscape:pageshadow="2"
     inkscape:window-width="708"
     inkscape:window-height="480"
     id="namedview8"
     showgrid="false"
     inkscape:zoom="0.4609375"
     inkscape:cx="256"
     inkscape:cy="256"
     inkscape:window-x="2484"
     inkscape:window-y="272"
     inkscape:window-maximized="0"
     inkscape:current-layer="svg6" />
  <g
     id="g4524"
     transform="rotate(-90,256,256)">
    <path
       id="path2"
       d="m 192,277.4 h 189.7 l -43.6,44.7 29.9,29.9 96,-96 -96,-96 -31,29.9 44.7,44.7 H 192 Z"
       inkscape:connector-curvature="0" />
    <path
       id="path4"
       d="M 255.7,421.3 C 211.6,421.3 170.2,404.1 139,372.9 107.8,341.7 90.7,300.2 90.7,256 c 0,-44.1 17.2,-85.7 48.3,-116.9 31.2,-31.2 72.6,-48.4 116.7,-48.4 44,0 85.3,17.1 116.5,48.2 l 30.3,-30.3 C 394,100.2 384.7,92.4 374.8,85.4 339.7,61 298.6,48 255.7,48 141.2,48 48,141.3 48,256 c 0,114.7 93.2,208 207.7,208 42.9,0 84,-13 119,-37.5 10,-7 19.2,-14.7 27.7,-23.2 l -30.2,-30.2 c -31.1,31.1 -72.5,48.2 -116.5,48.2 z m 192.304,-164.453 -0.849,-0.848 0.849,-0.849 0.848,0.849 z"
       inkscape:connector-curvature="0" />
  </g>
</svg>
