<?xml version="1.0" encoding="iso-8859-1"?>
<svg class="imgBlocAccueil"  viewBox="-51 0 512 512"  xmlns="http://www.w3.org/2000/svg"><path d="m179.304688 301.667969c16.089843 0 23.054687-18.058594 20.332031-31.640625-2.648438-13.222656-12.601563-22.816406-23.667969-22.816406-16.105469 0-23.027344 17.71875-20.382812 31.394531.015624.082031.03125.164062.046874.242187 2.652344 13.222656 12.605469 22.820313 23.671876 22.820313zm-4.105469-39.382813c5.371093-1.074218 8.921875 6.660156 9.730469 10.691406.855468 4.265626.6875 13.691407-5.625 13.691407-3.273438 0-7.632813-4.117188-8.964844-10.765625-1.394532-6.957032 1.414062-12.925782 4.859375-13.617188zm0 0"/><path d="m140.070312 328.832031c12.976563-5.742187 14.566407-22.523437 9.429688-34.132812-5.128906-11.582031-18.597656-21.726563-31.609375-15.964844-11.507813 5.09375-15.648437 20.085937-9.429687 34.132813 5.125 11.578124 18.597656 21.726562 31.609374 15.964843zm-17.894531-22.035156c-2.871093-6.488281-1.425781-12.925781 1.785157-14.347656 5.007812-2.21875 10.160156 4.5625 11.824218 8.320312 1.664063 3.761719 3.222656 12.128907-1.785156 14.347657-5.011719 2.214843-10.160156-4.5625-11.824219-8.320313zm0 0"/><path d="m226.402344 301.300781c13.925781 2.789063 24.882812-9.964843 27.386718-22.449219 2.691407-13.433593-4.140624-31.640624-20.332031-31.640624-11.066406 0-21.023437 9.59375-23.671875 22.816406-3.019531 15.0625 4.277344 28.800781 16.617188 31.273437zm-1.910156-28.324219c.847656-4.238281 4.210937-11.789062 9.734374-10.691406 5.371094 1.082032 5.664063 9.582032 4.855469 13.617188-.839843 4.1875-4.242187 11.796875-9.730469 10.691406-3.445312-.691406-6.253906-6.660156-4.859374-13.617188zm0 0"/><path d="m259.921875 294.699219c-6.21875 14.046875-2.078125 29.039062 9.429687 34.132812 12.976563 5.746094 26.464844-4.339843 31.609376-15.964843 5.152343-11.632813 3.546874-28.390626-9.425782-34.132813-12.925781-5.722656-26.449218 4.304687-31.613281 15.964844zm28.570313 2.1875c.683593 2.960937.230468 6.574219-1.246094 9.910156-1.707032 3.855469-6.746094 10.570313-11.820313 8.320313-3.210937-1.421876-4.660156-7.859376-1.785156-14.347657 2.519531-5.6875 7.003906-8.664062 10.132813-8.664062 2.703124 0 4.171874 2.421875 4.71875 4.78125zm0 0"/><path d="m250.480469 330.363281c-7.464844 0-10.792969-3.183593-15.828125-8.003906-6.203125-5.933594-13.921875-13.316406-29.941406-13.316406-16.019532 0-23.738282 7.382812-29.941407 13.316406-5.035156 4.820313-8.363281 8.003906-15.828125 8.003906-10.527344 0-21.148437 7.226563-27.722656 18.855469-14.113281 24.976562-.597656 63.894531 31.128906 63.894531 6.863282 0 14.039063-1.5 20.980469-2.953125 14.84375-3.101562 27.726563-3.144531 42.769531 0 6.941406 1.453125 14.117188 2.953125 20.984375 2.953125 31.847657.003907 45.183594-39.015625 31.121094-63.894531-6.574219-11.628906-17.195313-18.855469-27.722656-18.855469zm14.03125 57.476563c-8.074219 13.402344-22.3125 10.363281-35.34375 7.640625-17.070313-3.570313-31.851563-3.570313-48.910157 0-13.285156 2.777343-27.21875 5.859375-35.34375-7.640625-8.515624-14.140625-3.28125-26.558594-.636718-31.242188 3.742187-6.613281 9.769531-11.234375 14.664062-11.234375 13.484375 0 20.535156-6.746093 26.199219-12.164062 12.308594-11.777344 27.011719-11.609375 39.140625 0 5.664062 5.417969 12.714844 12.164062 26.203125 12.164062 4.894531 0 10.921875 4.621094 14.660156 11.234375 2.644531 4.683594 7.878907 17.097656-.632812 31.242188zm0 0"/><path d="m204.710938 200.015625c-71.761719 0-130.144532 58.382813-130.144532 130.144531 0 71.765625 58.382813 130.148438 130.144532 130.148438 71.761718 0 130.144531-58.382813 130.144531-130.148438 0-71.761718-58.382813-130.144531-130.144531-130.144531zm0 245.292969c-63.492188 0-115.144532-51.65625-115.144532-115.148438 0-63.488281 51.652344-115.144531 115.144532-115.144531 63.492187 0 115.144531 51.65625 115.144531 115.144531 0 63.492188-51.652344 115.148438-115.144531 115.148438zm0 0"/><path d="m315.042969 163.324219c15.894531 0 29.675781 11.320312 32.757812 26.914062 0 0 32.949219 166.695313 32.980469 166.84375.789062 3.992188 4.824219 6.691407 8.8125 5.902344 4.0625-.800781 6.703125-4.746094 5.902344-8.808594l-32.980469-166.84375c-4.453125-22.53125-24.308594-38.898437-47.253906-39.003906v-37.777344c0-60.957031-49.59375-110.550781-110.550781-110.550781-60.957032 0-110.546876 49.59375-110.546876 110.550781v37.777344c-22.949218.105469-42.804687 16.472656-47.257812 39.003906l-7.675781 38.84375c-.804688 4.0625 1.835937 8.007813 5.902343 8.808594 4.0625.804687 8.007813-1.835937 8.8125-5.902344l7.675782-38.84375c3.085937-15.59375 16.859375-26.914062 32.761718-26.914062zm-55.328125-15h-110.007813v-37.773438c0-30.332031 24.675781-55.007812 55.003907-55.007812 30.332031 0 55.003906 24.675781 55.003906 55.007812zm15 0v-37.773438c0-38.601562-31.402344-70.007812-70.003906-70.007812-38.601563 0-70.003907 31.40625-70.003907 70.007812v37.773438h-25.542969v-37.773438c0-52.6875 42.859376-95.550781 95.546876-95.550781s95.550781 42.863281 95.550781 95.550781v37.773438zm0 0"/><path d="m33.300781 256.175781-31.773437 160.730469c-4.640625 23.464844 1.410156 47.527344 16.597656 66.007812 15.1875 18.484376 37.617188 29.085938 61.539062 29.085938h250.09375c23.921876 0 46.351563-10.601562 61.539063-29.085938 15.1875-18.480468 21.238281-42.542968 16.597656-66.007812l-6.46875-32.730469c-.804687-4.066406-4.746093-6.707031-8.8125-5.902343-4.0625.800781-6.707031 4.746093-5.902343 8.8125l6.46875 32.730468c3.765624 19.046875-1.144532 38.578125-13.472657 53.578125-12.324219 15-30.53125 23.605469-49.949219 23.605469h-250.09375c-19.417968 0-37.625-8.605469-49.949218-23.605469-12.328125-15.003906-17.238282-34.53125-13.472656-53.582031l31.769531-160.730469c.804687-4.0625-1.835938-8.007812-5.902344-8.8125-4.066406-.800781-8.007813 1.839844-8.808594 5.90625zm0 0"/></svg>
