<?xml version="1.0" encoding="utf-8"?>
<!-- Generator: Adobe Illustrator 18.1.0, SVG Export Plug-In . SVG Version: 6.00 Build 0)  -->
<svg version="1.1" id="Layer_1" xmlns="http://www.w3.org/2000/svg" xmlns:xlink="http://www.w3.org/1999/xlink" x="0px" y="0px"
	 viewBox="0 0 512 512" enable-background="new 0 0 512 512" xml:space="preserve">
<g>
	<g>
		<g>
			<path d="M46,505c-4.4,0-8-3.6-8-8c0-32.2,22.9-60.2,54.4-66.6l5.6-1.1V256c0-87.1,70.9-158,158-158s158,70.9,158,158v173.2
				l5.6,1.1c31.5,6.4,54.4,34.4,54.4,66.6c0,4.4-3.6,8-8,8H46z M106,445c-22,0-41.7,13.9-49,34.7l-3.3,9.3h404.7l-3.3-9.3
				c-7.4-20.7-27.1-34.7-49-34.7H106z M264,369h52c21,0,38,17,38,38v22h44V256c0-78.3-63.7-142-142-142s-142,63.7-142,142v173h44
				v-22c0-21,17-38,38-38h52v-67.1l-11.2,8.4c-11.9,8.9-26,13.6-40.8,13.6c-4.4,0-8-3.6-8-8V196c0-4.4,3.6-8,8-8
				c21.6,0,41.4,9.9,54.4,27.3l5.6,7.5l5.6-7.5c13-17.3,32.8-27.3,54.4-27.3c4.4,0,8,3.6,8,8v120c0,4.4-3.6,8-8,8
				c-14.8,0-28.9-4.7-40.8-13.6l-11.2-8.4V369z M196,385c-12.1,0-22,9.9-22,22v22h164v-22c0-12.1-9.9-22-22-22H196z M204,308.3
				l9.3-3.3c20.7-7.4,34.7-27.1,34.7-49c0-22-13.9-41.7-34.7-49l-9.3-3.3V308.3z M298.7,207c-20.7,7.4-34.7,27.1-34.7,49
				s13.9,41.7,34.7,49l9.3,3.3V203.7L298.7,207z"/>
		</g>
	</g>
	<g>
		<g>
			<path d="M256,54c-4.4,0-8-3.6-8-8V15c0-4.4,3.6-8,8-8s8,3.6,8,8v31C264,50.4,260.4,54,256,54z"/>
		</g>
	</g>
	<g>
		<g>
			<path d="M151,82.2c-2.9,0-5.5-1.5-6.9-4l-15-26c-1.1-1.9-1.4-4-0.8-6.1s1.9-3.8,3.7-4.9c1.2-0.7,2.6-1.1,4-1.1
				c2.9,0,5.5,1.5,6.9,4l15,26c2.2,3.8,0.9,8.7-2.9,10.9C153.8,81.8,152.4,82.2,151,82.2C151,82.2,151,82.2,151,82.2z"/>
		</g>
	</g>
	<g>
		<g>
			<path d="M74.2,159c-1.4,0-2.8-0.4-4-1.1l-26-15c-3.8-2.2-5.1-7.1-2.9-10.9c1.4-2.5,4.1-4,6.9-4c1.4,0,2.8,0.4,4,1.1l26,15
				c3.8,2.2,5.1,7.1,2.9,10.9C79.7,157.5,77,159,74.2,159L74.2,159z"/>
		</g>
	</g>
	<g>
		<g>
			<path d="M15,264c-4.4,0-8-3.6-8-8s3.6-8,8-8h31c4.4,0,8,3.6,8,8s-3.6,8-8,8H15z"/>
		</g>
	</g>
	<g>
		<g>
			<path d="M466,264c-4.4,0-8-3.6-8-8s3.6-8,8-8h31c4.4,0,8,3.6,8,8s-3.6,8-8,8H466z"/>
		</g>
	</g>
	<g>
		<g>
			<path d="M437.8,159c-2.9,0-5.5-1.5-6.9-4c-1.1-1.9-1.4-4-0.8-6.1c0.6-2.1,1.9-3.8,3.7-4.9l26-15c1.2-0.7,2.6-1.1,4-1.1
				c2.9,0,5.5,1.5,6.9,4c1.1,1.8,1.4,4,0.8,6.1c-0.6,2.1-1.9,3.8-3.7,4.9l-26,15C440.6,158.7,439.3,159,437.8,159
				C437.8,159,437.8,159,437.8,159z"/>
		</g>
	</g>
	<g>
		<g>
			<path d="M361,82.2c-1.4,0-2.8-0.4-4-1.1c-1.9-1.1-3.2-2.8-3.7-4.9c-0.6-2.1-0.3-4.2,0.8-6.1l15-26c1.4-2.5,4.1-4,6.9-4
				c1.4,0,2.8,0.4,4,1.1c1.8,1.1,3.2,2.8,3.7,4.9s0.3,4.2-0.8,6.1l-15,26C366.5,80.6,363.8,82.2,361,82.2L361,82.2z"/>
		</g>
	</g>
</g>
</svg>
