<?xml version="1.0" encoding="utf-8"?>
<!-- Generator: Adobe Illustrator 15.0.0, SVG Export Plug-In  -->
<!DOCTYPE svg PUBLIC "-//W3C//DTD SVG 1.1//EN" "http://www.w3.org/Graphics/SVG/1.1/DTD/svg11.dtd" [
	<!ENTITY ns_flows "http://ns.adobe.com/Flows/1.0/">
]>
<svg version="1.1"
	 xmlns="http://www.w3.org/2000/svg" xmlns:xlink="http://www.w3.org/1999/xlink" xmlns:a="http://ns.adobe.com/AdobeSVGViewerExtensions/3.0/"
	 x="0px" y="0px" width="595px" height="842px" viewBox="-194.314 -383.247 595 842"
	 enable-background="new -194.314 -383.247 595 842" xml:space="preserve">
<defs>
</defs>
<g>
	<g>
		<path fill="#444748" d="M10.725,27.49l-9.629-1.737c1.082-3.876,2.945-6.746,5.589-8.609c2.643-1.862,6.57-2.794,11.782-2.794
			c4.732,0,8.256,0.561,10.573,1.681c2.315,1.12,3.946,2.543,4.89,4.267c0.944,1.725,1.417,4.89,1.417,9.497L35.232,42.18
			c0,3.524,0.17,6.124,0.51,7.798c0.34,1.675,0.975,3.468,1.907,5.381H27.151c-0.277-0.704-0.617-1.749-1.02-3.134
			c-0.177-0.629-0.302-1.045-0.378-1.246c-1.813,1.762-3.751,3.084-5.815,3.965c-2.064,0.881-4.267,1.321-6.608,1.321
			c-4.129,0-7.382-1.12-9.761-3.36S0,47.831,0,44.407c0-2.266,0.542-4.285,1.624-6.061c1.082-1.774,2.599-3.134,4.55-4.078
			c1.951-0.944,4.764-1.769,8.439-2.474c4.959-0.931,8.396-1.799,10.309-2.605v-1.057c0-2.04-0.504-3.493-1.51-4.362
			c-1.007-0.868-2.908-1.303-5.702-1.303c-1.888,0-3.361,0.372-4.418,1.114C12.235,24.325,11.379,25.628,10.725,27.49z M24.923,36.1
			c-1.359,0.453-3.512,0.995-6.457,1.624c-2.946,0.63-4.872,1.246-5.778,1.851c-1.385,0.981-2.077,2.228-2.077,3.738
			c0,1.485,0.553,2.77,1.662,3.852c1.107,1.083,2.517,1.624,4.229,1.624c1.913,0,3.738-0.629,5.476-1.889
			c1.284-0.956,2.127-2.127,2.53-3.512c0.277-0.906,0.416-2.63,0.416-5.173V36.1z"/>
		<path fill="#444748" d="M45.352,55.358V0h10.611v19.938c3.272-3.726,7.149-5.589,11.63-5.589c4.884,0,8.924,1.769,12.122,5.306
			c3.197,3.537,4.795,8.616,4.795,15.236c0,6.848-1.63,12.121-4.89,15.822c-3.26,3.7-7.219,5.551-11.876,5.551
			c-2.291,0-4.55-0.573-6.778-1.718c-2.228-1.146-4.148-2.838-5.759-5.079v5.891H45.352z M55.887,34.438
			c0,4.154,0.654,7.226,1.963,9.214c1.837,2.819,4.28,4.229,7.326,4.229c2.341,0,4.336-1.001,5.985-3.002
			c1.648-2.002,2.474-5.154,2.474-9.46c0-4.581-0.831-7.885-2.493-9.912c-1.661-2.026-3.789-3.04-6.381-3.04
			c-2.543,0-4.658,0.988-6.344,2.965S55.887,30.411,55.887,34.438z"/>
		<path fill="#444748" d="M111.435,15.256v8.458h-7.25v16.162c0,3.273,0.069,5.18,0.208,5.721c0.138,0.542,0.454,0.988,0.944,1.341
			s1.088,0.528,1.793,0.528c0.982,0,2.404-0.34,4.268-1.02l0.906,8.232c-2.467,1.058-5.262,1.586-8.383,1.586
			c-1.914,0-3.638-0.321-5.173-0.963c-1.536-0.642-2.662-1.473-3.38-2.492c-0.717-1.02-1.215-2.397-1.491-4.135
			c-0.227-1.233-0.34-3.726-0.34-7.477V23.714h-4.872v-8.458h4.872V7.288l10.648-6.193v14.161H111.435z"/>
		<path fill="#444748" d="M142.021,42.595l10.573,1.775c-1.359,3.877-3.507,6.829-6.438,8.854c-2.934,2.027-6.603,3.04-11.008,3.04
			c-6.973,0-12.135-2.278-15.482-6.835c-2.643-3.649-3.965-8.257-3.965-13.82c0-6.646,1.737-11.851,5.211-15.614
			c3.475-3.764,7.867-5.646,13.18-5.646c5.966,0,10.674,1.97,14.123,5.909c3.448,3.94,5.098,9.976,4.946,18.107h-26.585
			c0.076,3.146,0.932,5.595,2.568,7.344c1.637,1.75,3.676,2.625,6.117,2.625c1.662,0,3.059-0.453,4.191-1.359
			S141.441,44.609,142.021,42.595z M142.625,31.871c-0.075-3.071-0.868-5.406-2.379-7.005c-1.51-1.599-3.348-2.398-5.513-2.398
			c-2.316,0-4.229,0.844-5.739,2.53c-1.512,1.687-2.254,3.979-2.229,6.873H142.625z"/>
		<path fill="#444748" d="M161.809,55.358V0h10.611v55.358H161.809z"/>
	</g>
</g>
<path fill="#FFFFFF" d="M2.644,77.076V62.082h10.279v2.536H5.671v3.549h6.26v2.537h-6.26v6.372H2.644z"/>
<path fill="#FFFFFF" d="M15.153,71.491c0-0.954,0.235-1.878,0.706-2.771s1.137-1.575,2-2.046s1.826-0.705,2.89-0.705
	c1.643,0,2.99,0.533,4.04,1.601c1.05,1.067,1.575,2.415,1.575,4.045c0,1.644-0.53,3.006-1.59,4.086
	c-1.061,1.081-2.396,1.621-4.004,1.621c-0.996,0-1.945-0.225-2.849-0.675c-0.904-0.45-1.59-1.109-2.061-1.979
	C15.388,73.798,15.153,72.739,15.153,71.491z M18.099,71.645c0,1.078,0.255,1.903,0.767,2.476c0.511,0.573,1.142,0.859,1.892,0.859
	c0.75,0,1.379-0.286,1.887-0.859c0.508-0.572,0.762-1.404,0.762-2.495c0-1.064-0.254-1.883-0.762-2.455
	c-0.508-0.573-1.137-0.859-1.887-0.859c-0.75,0-1.381,0.286-1.892,0.859C18.354,69.742,18.099,70.567,18.099,71.645z"/>
<path fill="#FFFFFF" d="M31.783,77.076h-2.874V66.214h2.669v1.544c0.457-0.729,0.868-1.21,1.232-1.441
	c0.365-0.232,0.779-0.348,1.243-0.348c0.655,0,1.286,0.181,1.893,0.542l-0.89,2.506c-0.484-0.313-0.934-0.471-1.35-0.471
	c-0.402,0-0.743,0.111-1.023,0.332c-0.279,0.222-0.5,0.623-0.66,1.202c-0.16,0.58-0.24,1.794-0.24,3.642V77.076z"/>
<path fill="#FFFFFF" d="M37.388,66.214h2.649v1.483c0.948-1.152,2.076-1.729,3.385-1.729c0.696,0,1.299,0.143,1.811,0.429
	c0.511,0.287,0.931,0.72,1.258,1.3c0.478-0.58,0.992-1.013,1.545-1.3c0.552-0.286,1.142-0.429,1.769-0.429
	c0.798,0,1.473,0.162,2.025,0.485c0.552,0.324,0.965,0.8,1.238,1.427c0.197,0.464,0.296,1.214,0.296,2.25v6.945H50.49v-6.209
	c0-1.077-0.099-1.772-0.297-2.086c-0.266-0.409-0.675-0.614-1.227-0.614c-0.402,0-0.781,0.123-1.135,0.368
	c-0.355,0.246-0.61,0.605-0.767,1.079c-0.157,0.475-0.235,1.223-0.235,2.245v5.217h-2.874v-5.953c0-1.057-0.051-1.738-0.154-2.045
	c-0.102-0.308-0.261-0.535-0.476-0.686s-0.506-0.226-0.875-0.226c-0.443,0-0.842,0.12-1.197,0.358
	c-0.354,0.239-0.608,0.583-0.762,1.033s-0.23,1.196-0.23,2.24v5.277h-2.875V66.214z"/>
<path fill="#FFFFFF" d="M58.795,69.527l-2.608-0.47c0.293-1.051,0.798-1.828,1.514-2.332c0.716-0.505,1.78-0.757,3.191-0.757
	c1.282,0,2.237,0.151,2.864,0.455c0.627,0.303,1.069,0.688,1.324,1.155c0.256,0.468,0.384,1.325,0.384,2.572l-0.031,3.355
	c0,0.954,0.046,1.658,0.138,2.112c0.092,0.453,0.264,0.938,0.517,1.457h-2.844c-0.075-0.19-0.167-0.474-0.276-0.849
	c-0.048-0.171-0.082-0.283-0.103-0.338c-0.491,0.478-1.016,0.835-1.575,1.074c-0.559,0.238-1.156,0.357-1.79,0.357
	c-1.119,0-2-0.303-2.644-0.91c-0.645-0.606-0.967-1.374-0.967-2.301c0-0.614,0.146-1.161,0.44-1.642
	c0.293-0.481,0.704-0.85,1.232-1.105c0.528-0.255,1.291-0.479,2.286-0.67c1.343-0.252,2.274-0.487,2.792-0.705v-0.287
	c0-0.552-0.136-0.945-0.409-1.181c-0.272-0.235-0.787-0.354-1.544-0.354c-0.511,0-0.91,0.102-1.196,0.302
	C59.204,68.67,58.972,69.023,58.795,69.527z M62.641,71.859c-0.368,0.123-0.951,0.27-1.749,0.44
	c-0.797,0.17-1.319,0.337-1.565,0.501c-0.375,0.266-0.563,0.604-0.563,1.013c0,0.402,0.15,0.75,0.45,1.043
	c0.3,0.294,0.682,0.44,1.146,0.44c0.518,0,1.013-0.171,1.483-0.512c0.348-0.259,0.576-0.576,0.686-0.951
	c0.075-0.246,0.112-0.713,0.112-1.401V71.859z"/>
<path fill="#FFFFFF" d="M73.697,66.214v2.291h-1.964v4.378c0,0.887,0.019,1.402,0.056,1.55c0.038,0.146,0.123,0.268,0.256,0.362
	c0.133,0.096,0.294,0.144,0.486,0.144c0.266,0,0.651-0.092,1.156-0.276l0.245,2.229c-0.668,0.287-1.425,0.43-2.271,0.43
	c-0.518,0-0.985-0.087-1.401-0.261s-0.721-0.398-0.915-0.675s-0.329-0.649-0.404-1.12c-0.062-0.334-0.092-1.009-0.092-2.025v-4.735
	h-1.32v-2.291h1.32v-2.158l2.884-1.678v3.836H73.697z"/>
<path fill="#FFFFFF" d="M76.11,64.741v-2.659h2.874v2.659H76.11z M76.11,77.076V66.214h2.874v10.862H76.11z"/>
<path fill="#FFFFFF" d="M81.685,71.491c0-0.954,0.235-1.878,0.706-2.771s1.137-1.575,2-2.046s1.826-0.705,2.89-0.705
	c1.643,0,2.99,0.533,4.04,1.601c1.05,1.067,1.575,2.415,1.575,4.045c0,1.644-0.53,3.006-1.59,4.086
	c-1.061,1.081-2.396,1.621-4.004,1.621c-0.996,0-1.945-0.225-2.849-0.675c-0.904-0.45-1.59-1.109-2.061-1.979
	C81.919,73.798,81.685,72.739,81.685,71.491z M84.63,71.645c0,1.078,0.255,1.903,0.767,2.476c0.511,0.573,1.142,0.859,1.892,0.859
	c0.75,0,1.379-0.286,1.887-0.859c0.508-0.572,0.762-1.404,0.762-2.495c0-1.064-0.254-1.883-0.762-2.455
	c-0.508-0.573-1.137-0.859-1.887-0.859c-0.75,0-1.381,0.286-1.892,0.859C84.886,69.742,84.63,70.567,84.63,71.645z"/>
<path fill="#FFFFFF" d="M105.443,77.076h-2.874v-5.544c0-1.173-0.062-1.931-0.184-2.275s-0.322-0.612-0.598-0.803
	c-0.276-0.191-0.609-0.287-0.998-0.287c-0.498,0-0.944,0.137-1.34,0.409c-0.396,0.273-0.667,0.635-0.813,1.085
	c-0.147,0.449-0.22,1.281-0.22,2.495v4.92h-2.875V66.214h2.67v1.596c0.948-1.228,2.141-1.841,3.58-1.841
	c0.634,0,1.214,0.114,1.739,0.342c0.525,0.229,0.922,0.521,1.191,0.875c0.27,0.354,0.457,0.757,0.563,1.207s0.158,1.095,0.158,1.933
	V77.076z"/>
<g>
	<g>
		<path fill="#444748" d="M186.714,0c1.167,0,2.286,0.292,3.356,0.875c1.072,0.583,1.914,1.42,2.527,2.509
			c0.613,1.09,0.919,2.229,0.919,3.419c0,1.185-0.3,2.313-0.901,3.389c-0.602,1.074-1.438,1.912-2.514,2.513
			c-1.074,0.602-2.203,0.901-3.388,0.901s-2.313-0.3-3.388-0.901c-1.074-0.601-1.912-1.438-2.514-2.513
			c-0.601-1.075-0.901-2.204-0.901-3.389c0-1.189,0.307-2.329,0.919-3.419c0.613-1.089,1.455-1.926,2.527-2.509
			C184.429,0.292,185.547,0,186.714,0z M186.723,1.332c-0.936,0-1.832,0.234-2.69,0.702s-1.535,1.14-2.029,2.016
			c-0.495,0.877-0.741,1.794-0.741,2.753c0,0.954,0.24,1.862,0.723,2.727s1.156,1.54,2.021,2.025
			c0.863,0.485,1.77,0.728,2.717,0.728c0.953,0,1.861-0.242,2.723-0.728s1.535-1.161,2.02-2.025
			c0.486-0.864,0.729-1.772,0.729-2.727c0-0.959-0.247-1.876-0.741-2.753c-0.495-0.876-1.173-1.548-2.034-2.016
			S187.658,1.332,186.723,1.332z M183.641,10.444V3.224h1.466c1.374,0,2.144,0.007,2.31,0.019c0.484,0.041,0.862,0.138,1.132,0.288
			c0.27,0.151,0.494,0.382,0.675,0.693c0.181,0.311,0.271,0.655,0.271,1.034c0,0.521-0.171,0.967-0.512,1.337
			c-0.34,0.37-0.818,0.6-1.434,0.688c0.219,0.083,0.388,0.174,0.506,0.271c0.119,0.098,0.281,0.282,0.488,0.555
			c0.054,0.071,0.231,0.364,0.533,0.879l0.853,1.457h-1.812l-0.604-1.172c-0.408-0.788-0.746-1.284-1.013-1.488
			s-0.604-0.306-1.013-0.306h-0.382v2.966H183.641z M185.106,6.341h0.595c0.848,0,1.373-0.032,1.576-0.098
			c0.205-0.064,0.366-0.179,0.484-0.342c0.119-0.162,0.178-0.348,0.178-0.555c0-0.201-0.058-0.381-0.173-0.537
			c-0.116-0.157-0.28-0.27-0.493-0.338c-0.213-0.067-0.736-0.102-1.572-0.102h-0.595V6.341z"/>
	</g>
</g>
</svg>
