<?xml version="1.0" encoding="utf-8"?>
<!-- Generator: Adobe Illustrator 15.0.0, SVG Export Plug-In  -->
<!DOCTYPE svg PUBLIC "-//W3C//DTD SVG 1.1//EN" "http://www.w3.org/Graphics/SVG/1.1/DTD/svg11.dtd" [
	<!ENTITY ns_flows "http://ns.adobe.com/Flows/1.0/">
]>
<svg version="1.1"
	 xmlns="http://www.w3.org/2000/svg" xmlns:xlink="http://www.w3.org/1999/xlink" xmlns:a="http://ns.adobe.com/AdobeSVGViewerExtensions/3.0/"
	 x="0px" y="0px" width="595px" height="842px" viewBox="-199.314 -383.884 595 842"
	 enable-background="new -199.314 -383.884 595 842" xml:space="preserve">
<defs>
</defs>
<g>
	<g>
		<path fill="#444748" d="M10.725,27.49l-9.629-1.737c1.082-3.876,2.945-6.746,5.589-8.609c2.643-1.862,6.57-2.794,11.782-2.794
			c4.732,0,8.256,0.561,10.573,1.681c2.315,1.12,3.946,2.543,4.89,4.267c0.944,1.725,1.417,4.89,1.417,9.497L35.232,42.18
			c0,3.524,0.17,6.124,0.51,7.798c0.34,1.675,0.975,3.468,1.907,5.381H27.151c-0.277-0.704-0.617-1.749-1.02-3.134
			c-0.177-0.629-0.302-1.045-0.378-1.246c-1.813,1.762-3.751,3.084-5.815,3.965c-2.064,0.881-4.267,1.321-6.608,1.321
			c-4.129,0-7.382-1.12-9.761-3.36S0,47.831,0,44.407c0-2.266,0.542-4.285,1.624-6.061c1.082-1.774,2.599-3.134,4.55-4.078
			c1.951-0.944,4.764-1.769,8.439-2.474c4.959-0.931,8.396-1.799,10.309-2.605v-1.057c0-2.04-0.504-3.493-1.51-4.362
			c-1.007-0.868-2.908-1.303-5.702-1.303c-1.888,0-3.361,0.372-4.418,1.114C12.235,24.325,11.379,25.628,10.725,27.49z M24.923,36.1
			c-1.359,0.453-3.512,0.995-6.457,1.624c-2.946,0.63-4.872,1.246-5.778,1.851c-1.385,0.981-2.077,2.228-2.077,3.738
			c0,1.485,0.553,2.77,1.662,3.852c1.107,1.083,2.517,1.624,4.229,1.624c1.913,0,3.738-0.629,5.476-1.889
			c1.284-0.956,2.127-2.127,2.53-3.512c0.277-0.906,0.416-2.63,0.416-5.173V36.1z"/>
		<path fill="#444748" d="M45.352,55.358V0h10.611v19.938c3.272-3.726,7.149-5.589,11.63-5.589c4.884,0,8.924,1.769,12.122,5.306
			c3.197,3.537,4.795,8.616,4.795,15.236c0,6.848-1.63,12.121-4.89,15.822c-3.26,3.7-7.219,5.551-11.876,5.551
			c-2.291,0-4.55-0.573-6.778-1.718c-2.228-1.146-4.148-2.838-5.759-5.079v5.891H45.352z M55.887,34.438
			c0,4.154,0.654,7.226,1.963,9.214c1.837,2.819,4.28,4.229,7.326,4.229c2.341,0,4.336-1.001,5.985-3.002
			c1.648-2.002,2.474-5.154,2.474-9.46c0-4.581-0.831-7.885-2.493-9.912c-1.661-2.026-3.789-3.04-6.381-3.04
			c-2.543,0-4.658,0.988-6.344,2.965S55.887,30.411,55.887,34.438z"/>
		<path fill="#444748" d="M111.435,15.256v8.458h-7.251v16.162c0,3.273,0.07,5.18,0.209,5.721c0.137,0.542,0.453,0.988,0.943,1.341
			s1.088,0.528,1.793,0.528c0.982,0,2.404-0.34,4.268-1.02l0.906,8.232c-2.467,1.058-5.262,1.586-8.383,1.586
			c-1.914,0-3.639-0.321-5.173-0.963c-1.536-0.642-2.662-1.473-3.38-2.492c-0.717-1.02-1.215-2.397-1.491-4.135
			c-0.227-1.233-0.34-3.726-0.34-7.477V23.714h-4.872v-8.458h4.872V7.288l10.648-6.193v14.161H111.435z"/>
		<path fill="#444748" d="M142.021,42.595l10.573,1.775c-1.359,3.877-3.507,6.829-6.438,8.854c-2.934,2.027-6.603,3.04-11.008,3.04
			c-6.973,0-12.135-2.278-15.482-6.835c-2.643-3.649-3.965-8.257-3.965-13.82c0-6.646,1.737-11.851,5.211-15.614
			c3.475-3.764,7.867-5.646,13.18-5.646c5.966,0,10.674,1.97,14.123,5.909c3.448,3.94,5.098,9.976,4.946,18.107h-26.585
			c0.076,3.146,0.932,5.595,2.568,7.344c1.637,1.75,3.676,2.625,6.117,2.625c1.662,0,3.059-0.453,4.191-1.359
			S141.441,44.609,142.021,42.595z M142.625,31.871c-0.075-3.071-0.868-5.406-2.379-7.005c-1.51-1.599-3.348-2.398-5.513-2.398
			c-2.316,0-4.229,0.844-5.739,2.53c-1.512,1.687-2.254,3.979-2.229,6.873H142.625z"/>
		<path fill="#444748" d="M161.809,55.358V0h10.611v55.358H161.809z"/>
	</g>
</g>
<path fill="#FFFFFF" d="M2.654,77.075V62.081H5.6l6.137,10.013V62.081h2.813v14.994h-3.038l-6.044-9.778v9.778H2.654z"/>
<path fill="#FFFFFF" d="M24.44,73.618l2.864,0.48c-0.368,1.051-0.95,1.85-1.744,2.398c-0.794,0.549-1.789,0.823-2.982,0.823
	c-1.889,0-3.287-0.616-4.193-1.851c-0.716-0.989-1.074-2.236-1.074-3.744c0-1.8,0.47-3.21,1.411-4.229
	c0.941-1.019,2.131-1.528,3.57-1.528c1.616,0,2.891,0.533,3.825,1.601s1.381,2.702,1.34,4.904h-7.201
	c0.021,0.853,0.252,1.516,0.696,1.989c0.443,0.474,0.996,0.711,1.657,0.711c0.45,0,0.829-0.123,1.135-0.368
	C24.051,74.559,24.283,74.164,24.44,73.618z M24.604,70.713c-0.021-0.831-0.235-1.464-0.645-1.896
	c-0.409-0.434-0.907-0.65-1.493-0.65c-0.627,0-1.146,0.229-1.555,0.686s-0.61,1.078-0.604,1.861H24.604z"/>
<path fill="#FFFFFF" d="M35.2,66.213v2.291h-1.964v4.378c0,0.887,0.019,1.402,0.056,1.55c0.038,0.146,0.123,0.268,0.256,0.362
	c0.133,0.096,0.294,0.144,0.486,0.144c0.266,0,0.651-0.092,1.156-0.276l0.245,2.229c-0.668,0.287-1.425,0.43-2.271,0.43
	c-0.518,0-0.985-0.087-1.401-0.261s-0.721-0.398-0.915-0.675s-0.329-0.649-0.404-1.12c-0.062-0.334-0.092-1.009-0.092-2.025v-4.735
	h-1.32v-2.291h1.32v-2.158l2.884-1.678v3.836H35.2z"/>
<path fill="#FFFFFF" d="M39.638,77.075l-3.437-10.862h2.792l2.036,7.119l1.872-7.119h2.772l1.81,7.119l2.077-7.119h2.833
	l-3.488,10.862h-2.762l-1.872-6.986l-1.841,6.986H39.638z"/>
<path fill="#FFFFFF" d="M53.661,71.49c0-0.954,0.235-1.878,0.706-2.771s1.137-1.575,2-2.046s1.826-0.705,2.89-0.705
	c1.643,0,2.99,0.533,4.04,1.601c1.05,1.067,1.575,2.415,1.575,4.045c0,1.644-0.53,3.006-1.59,4.086
	c-1.061,1.081-2.396,1.621-4.004,1.621c-0.996,0-1.945-0.225-2.849-0.675c-0.904-0.45-1.59-1.109-2.061-1.979
	C53.896,73.797,53.661,72.738,53.661,71.49z M56.606,71.644c0,1.078,0.255,1.903,0.767,2.476c0.511,0.573,1.142,0.859,1.892,0.859
	c0.75,0,1.379-0.286,1.887-0.859c0.508-0.572,0.762-1.404,0.762-2.495c0-1.064-0.254-1.883-0.762-2.455
	c-0.508-0.573-1.137-0.859-1.887-0.859c-0.75,0-1.381,0.286-1.892,0.859C56.862,69.741,56.606,70.566,56.606,71.644z"/>
<path fill="#FFFFFF" d="M70.291,77.075h-2.874V66.213h2.669v1.544c0.457-0.729,0.868-1.21,1.232-1.441
	c0.365-0.232,0.779-0.348,1.243-0.348c0.655,0,1.286,0.181,1.893,0.542l-0.89,2.506c-0.484-0.313-0.934-0.471-1.35-0.471
	c-0.402,0-0.743,0.111-1.023,0.332c-0.279,0.222-0.5,0.623-0.66,1.202c-0.16,0.58-0.24,1.794-0.24,3.642V77.075z"/>
<path fill="#FFFFFF" d="M76.008,77.075V62.081h2.874v7.957l3.365-3.825h3.539l-3.712,3.969l3.979,6.894h-3.099l-2.731-4.879
	l-1.34,1.401v3.478H76.008z"/>
<path fill="#FFFFFF" d="M87.167,73.976l2.885-0.439c0.123,0.56,0.372,0.983,0.747,1.273s0.9,0.435,1.575,0.435
	c0.743,0,1.302-0.136,1.677-0.409c0.252-0.19,0.378-0.446,0.378-0.767c0-0.219-0.068-0.399-0.205-0.542
	c-0.143-0.137-0.464-0.263-0.961-0.379c-2.318-0.512-3.788-0.979-4.408-1.401c-0.859-0.586-1.289-1.401-1.289-2.444
	c0-0.941,0.372-1.731,1.115-2.373c0.743-0.641,1.896-0.961,3.457-0.961c1.486,0,2.591,0.242,3.314,0.726
	c0.723,0.484,1.22,1.2,1.493,2.148l-2.71,0.501c-0.116-0.423-0.336-0.747-0.66-0.972c-0.324-0.226-0.786-0.338-1.386-0.338
	c-0.757,0-1.299,0.106-1.626,0.317c-0.218,0.15-0.327,0.345-0.327,0.583c0,0.204,0.095,0.378,0.286,0.521
	c0.259,0.191,1.154,0.46,2.685,0.809c1.531,0.348,2.6,0.773,3.207,1.278c0.6,0.511,0.9,1.224,0.9,2.138
	c0,0.995-0.416,1.851-1.248,2.567c-0.832,0.716-2.063,1.073-3.692,1.073c-1.48,0-2.651-0.3-3.514-0.899
	C87.997,75.82,87.433,75.006,87.167,73.976z"/>
<g>
	<g>
		<path fill="#444748" d="M186.714,0c1.167,0,2.286,0.292,3.356,0.875c1.072,0.583,1.914,1.42,2.527,2.509
			c0.613,1.09,0.919,2.229,0.919,3.419c0,1.185-0.3,2.313-0.901,3.389c-0.602,1.074-1.438,1.912-2.514,2.513
			c-1.074,0.602-2.203,0.901-3.388,0.901s-2.313-0.3-3.388-0.901c-1.074-0.601-1.912-1.438-2.514-2.513
			c-0.601-1.075-0.901-2.204-0.901-3.389c0-1.189,0.307-2.329,0.919-3.419c0.613-1.089,1.455-1.926,2.527-2.509
			C184.429,0.292,185.547,0,186.714,0z M186.723,1.332c-0.936,0-1.832,0.234-2.69,0.702s-1.535,1.14-2.029,2.016
			c-0.495,0.877-0.741,1.794-0.741,2.753c0,0.954,0.24,1.862,0.723,2.727s1.156,1.54,2.021,2.025
			c0.863,0.485,1.77,0.728,2.717,0.728c0.953,0,1.861-0.242,2.723-0.728s1.535-1.161,2.02-2.025
			c0.486-0.864,0.729-1.772,0.729-2.727c0-0.959-0.247-1.876-0.741-2.753c-0.495-0.876-1.173-1.548-2.034-2.016
			S187.658,1.332,186.723,1.332z M183.641,10.444V3.224h1.466c1.374,0,2.144,0.007,2.31,0.019c0.484,0.041,0.862,0.138,1.132,0.288
			c0.27,0.151,0.494,0.382,0.675,0.693c0.181,0.311,0.271,0.655,0.271,1.034c0,0.521-0.171,0.967-0.512,1.337
			c-0.34,0.37-0.818,0.6-1.434,0.688c0.219,0.083,0.388,0.174,0.506,0.271c0.119,0.098,0.281,0.282,0.488,0.555
			c0.054,0.071,0.231,0.364,0.533,0.879l0.853,1.457h-1.812l-0.604-1.172c-0.408-0.788-0.746-1.284-1.013-1.488
			s-0.604-0.306-1.013-0.306h-0.382v2.966H183.641z M185.106,6.341h0.595c0.848,0,1.373-0.032,1.576-0.098
			c0.205-0.064,0.366-0.179,0.484-0.342c0.119-0.162,0.178-0.348,0.178-0.555c0-0.201-0.058-0.381-0.173-0.537
			c-0.116-0.157-0.28-0.27-0.493-0.338c-0.213-0.067-0.736-0.102-1.572-0.102h-0.595V6.341z"/>
	</g>
</g>
</svg>
